%TF.GenerationSoftware,KiCad,Pcbnew,(5.1.6)-1*%
%TF.CreationDate,2020-06-22T18:51:59+05:30*%
%TF.ProjectId,STM8-Dev-Board-STM8S003F3P6,53544d38-2d44-4657-962d-426f6172642d,rev?*%
%TF.SameCoordinates,Original*%
%TF.FileFunction,Paste,Top*%
%TF.FilePolarity,Positive*%
%FSLAX46Y46*%
G04 Gerber Fmt 4.6, Leading zero omitted, Abs format (unit mm)*
G04 Created by KiCad (PCBNEW (5.1.6)-1) date 2020-06-22 18:51:59*
%MOMM*%
%LPD*%
G01*
G04 APERTURE LIST*
%ADD10R,1.500000X1.900000*%
%ADD11R,0.400000X1.350000*%
%ADD12R,1.800000X1.100000*%
G04 APERTURE END LIST*
D10*
%TO.C,J1*%
X64500000Y-120682500D03*
D11*
X63500000Y-123382500D03*
X62850000Y-123382500D03*
X62200000Y-123382500D03*
X64800000Y-123382500D03*
X64150000Y-123382500D03*
D10*
X62500000Y-120682500D03*
%TD*%
D12*
%TO.C,SW1*%
X66600000Y-130374000D03*
X60400000Y-130374000D03*
X66600000Y-126674000D03*
X60400000Y-126674000D03*
%TD*%
%TO.C,U1*%
G36*
G01*
X65625000Y-135351000D02*
X65625000Y-135151000D01*
G75*
G02*
X65725000Y-135051000I100000J0D01*
G01*
X67000000Y-135051000D01*
G75*
G02*
X67100000Y-135151000I0J-100000D01*
G01*
X67100000Y-135351000D01*
G75*
G02*
X67000000Y-135451000I-100000J0D01*
G01*
X65725000Y-135451000D01*
G75*
G02*
X65625000Y-135351000I0J100000D01*
G01*
G37*
G36*
G01*
X65625000Y-136001000D02*
X65625000Y-135801000D01*
G75*
G02*
X65725000Y-135701000I100000J0D01*
G01*
X67000000Y-135701000D01*
G75*
G02*
X67100000Y-135801000I0J-100000D01*
G01*
X67100000Y-136001000D01*
G75*
G02*
X67000000Y-136101000I-100000J0D01*
G01*
X65725000Y-136101000D01*
G75*
G02*
X65625000Y-136001000I0J100000D01*
G01*
G37*
G36*
G01*
X65625000Y-136651000D02*
X65625000Y-136451000D01*
G75*
G02*
X65725000Y-136351000I100000J0D01*
G01*
X67000000Y-136351000D01*
G75*
G02*
X67100000Y-136451000I0J-100000D01*
G01*
X67100000Y-136651000D01*
G75*
G02*
X67000000Y-136751000I-100000J0D01*
G01*
X65725000Y-136751000D01*
G75*
G02*
X65625000Y-136651000I0J100000D01*
G01*
G37*
G36*
G01*
X65625000Y-137301000D02*
X65625000Y-137101000D01*
G75*
G02*
X65725000Y-137001000I100000J0D01*
G01*
X67000000Y-137001000D01*
G75*
G02*
X67100000Y-137101000I0J-100000D01*
G01*
X67100000Y-137301000D01*
G75*
G02*
X67000000Y-137401000I-100000J0D01*
G01*
X65725000Y-137401000D01*
G75*
G02*
X65625000Y-137301000I0J100000D01*
G01*
G37*
G36*
G01*
X65625000Y-137951000D02*
X65625000Y-137751000D01*
G75*
G02*
X65725000Y-137651000I100000J0D01*
G01*
X67000000Y-137651000D01*
G75*
G02*
X67100000Y-137751000I0J-100000D01*
G01*
X67100000Y-137951000D01*
G75*
G02*
X67000000Y-138051000I-100000J0D01*
G01*
X65725000Y-138051000D01*
G75*
G02*
X65625000Y-137951000I0J100000D01*
G01*
G37*
G36*
G01*
X65625000Y-138601000D02*
X65625000Y-138401000D01*
G75*
G02*
X65725000Y-138301000I100000J0D01*
G01*
X67000000Y-138301000D01*
G75*
G02*
X67100000Y-138401000I0J-100000D01*
G01*
X67100000Y-138601000D01*
G75*
G02*
X67000000Y-138701000I-100000J0D01*
G01*
X65725000Y-138701000D01*
G75*
G02*
X65625000Y-138601000I0J100000D01*
G01*
G37*
G36*
G01*
X65625000Y-139251000D02*
X65625000Y-139051000D01*
G75*
G02*
X65725000Y-138951000I100000J0D01*
G01*
X67000000Y-138951000D01*
G75*
G02*
X67100000Y-139051000I0J-100000D01*
G01*
X67100000Y-139251000D01*
G75*
G02*
X67000000Y-139351000I-100000J0D01*
G01*
X65725000Y-139351000D01*
G75*
G02*
X65625000Y-139251000I0J100000D01*
G01*
G37*
G36*
G01*
X65625000Y-139901000D02*
X65625000Y-139701000D01*
G75*
G02*
X65725000Y-139601000I100000J0D01*
G01*
X67000000Y-139601000D01*
G75*
G02*
X67100000Y-139701000I0J-100000D01*
G01*
X67100000Y-139901000D01*
G75*
G02*
X67000000Y-140001000I-100000J0D01*
G01*
X65725000Y-140001000D01*
G75*
G02*
X65625000Y-139901000I0J100000D01*
G01*
G37*
G36*
G01*
X65625000Y-140551000D02*
X65625000Y-140351000D01*
G75*
G02*
X65725000Y-140251000I100000J0D01*
G01*
X67000000Y-140251000D01*
G75*
G02*
X67100000Y-140351000I0J-100000D01*
G01*
X67100000Y-140551000D01*
G75*
G02*
X67000000Y-140651000I-100000J0D01*
G01*
X65725000Y-140651000D01*
G75*
G02*
X65625000Y-140551000I0J100000D01*
G01*
G37*
G36*
G01*
X65625000Y-141201000D02*
X65625000Y-141001000D01*
G75*
G02*
X65725000Y-140901000I100000J0D01*
G01*
X67000000Y-140901000D01*
G75*
G02*
X67100000Y-141001000I0J-100000D01*
G01*
X67100000Y-141201000D01*
G75*
G02*
X67000000Y-141301000I-100000J0D01*
G01*
X65725000Y-141301000D01*
G75*
G02*
X65625000Y-141201000I0J100000D01*
G01*
G37*
G36*
G01*
X59900000Y-141201000D02*
X59900000Y-141001000D01*
G75*
G02*
X60000000Y-140901000I100000J0D01*
G01*
X61275000Y-140901000D01*
G75*
G02*
X61375000Y-141001000I0J-100000D01*
G01*
X61375000Y-141201000D01*
G75*
G02*
X61275000Y-141301000I-100000J0D01*
G01*
X60000000Y-141301000D01*
G75*
G02*
X59900000Y-141201000I0J100000D01*
G01*
G37*
G36*
G01*
X59900000Y-140551000D02*
X59900000Y-140351000D01*
G75*
G02*
X60000000Y-140251000I100000J0D01*
G01*
X61275000Y-140251000D01*
G75*
G02*
X61375000Y-140351000I0J-100000D01*
G01*
X61375000Y-140551000D01*
G75*
G02*
X61275000Y-140651000I-100000J0D01*
G01*
X60000000Y-140651000D01*
G75*
G02*
X59900000Y-140551000I0J100000D01*
G01*
G37*
G36*
G01*
X59900000Y-139901000D02*
X59900000Y-139701000D01*
G75*
G02*
X60000000Y-139601000I100000J0D01*
G01*
X61275000Y-139601000D01*
G75*
G02*
X61375000Y-139701000I0J-100000D01*
G01*
X61375000Y-139901000D01*
G75*
G02*
X61275000Y-140001000I-100000J0D01*
G01*
X60000000Y-140001000D01*
G75*
G02*
X59900000Y-139901000I0J100000D01*
G01*
G37*
G36*
G01*
X59900000Y-139251000D02*
X59900000Y-139051000D01*
G75*
G02*
X60000000Y-138951000I100000J0D01*
G01*
X61275000Y-138951000D01*
G75*
G02*
X61375000Y-139051000I0J-100000D01*
G01*
X61375000Y-139251000D01*
G75*
G02*
X61275000Y-139351000I-100000J0D01*
G01*
X60000000Y-139351000D01*
G75*
G02*
X59900000Y-139251000I0J100000D01*
G01*
G37*
G36*
G01*
X59900000Y-138601000D02*
X59900000Y-138401000D01*
G75*
G02*
X60000000Y-138301000I100000J0D01*
G01*
X61275000Y-138301000D01*
G75*
G02*
X61375000Y-138401000I0J-100000D01*
G01*
X61375000Y-138601000D01*
G75*
G02*
X61275000Y-138701000I-100000J0D01*
G01*
X60000000Y-138701000D01*
G75*
G02*
X59900000Y-138601000I0J100000D01*
G01*
G37*
G36*
G01*
X59900000Y-137951000D02*
X59900000Y-137751000D01*
G75*
G02*
X60000000Y-137651000I100000J0D01*
G01*
X61275000Y-137651000D01*
G75*
G02*
X61375000Y-137751000I0J-100000D01*
G01*
X61375000Y-137951000D01*
G75*
G02*
X61275000Y-138051000I-100000J0D01*
G01*
X60000000Y-138051000D01*
G75*
G02*
X59900000Y-137951000I0J100000D01*
G01*
G37*
G36*
G01*
X59900000Y-137301000D02*
X59900000Y-137101000D01*
G75*
G02*
X60000000Y-137001000I100000J0D01*
G01*
X61275000Y-137001000D01*
G75*
G02*
X61375000Y-137101000I0J-100000D01*
G01*
X61375000Y-137301000D01*
G75*
G02*
X61275000Y-137401000I-100000J0D01*
G01*
X60000000Y-137401000D01*
G75*
G02*
X59900000Y-137301000I0J100000D01*
G01*
G37*
G36*
G01*
X59900000Y-136651000D02*
X59900000Y-136451000D01*
G75*
G02*
X60000000Y-136351000I100000J0D01*
G01*
X61275000Y-136351000D01*
G75*
G02*
X61375000Y-136451000I0J-100000D01*
G01*
X61375000Y-136651000D01*
G75*
G02*
X61275000Y-136751000I-100000J0D01*
G01*
X60000000Y-136751000D01*
G75*
G02*
X59900000Y-136651000I0J100000D01*
G01*
G37*
G36*
G01*
X59900000Y-136001000D02*
X59900000Y-135801000D01*
G75*
G02*
X60000000Y-135701000I100000J0D01*
G01*
X61275000Y-135701000D01*
G75*
G02*
X61375000Y-135801000I0J-100000D01*
G01*
X61375000Y-136001000D01*
G75*
G02*
X61275000Y-136101000I-100000J0D01*
G01*
X60000000Y-136101000D01*
G75*
G02*
X59900000Y-136001000I0J100000D01*
G01*
G37*
G36*
G01*
X59900000Y-135351000D02*
X59900000Y-135151000D01*
G75*
G02*
X60000000Y-135051000I100000J0D01*
G01*
X61275000Y-135051000D01*
G75*
G02*
X61375000Y-135151000I0J-100000D01*
G01*
X61375000Y-135351000D01*
G75*
G02*
X61275000Y-135451000I-100000J0D01*
G01*
X60000000Y-135451000D01*
G75*
G02*
X59900000Y-135351000I0J100000D01*
G01*
G37*
%TD*%
%TO.C,R3*%
G36*
G01*
X62426000Y-146760250D02*
X62426000Y-145847750D01*
G75*
G02*
X62669750Y-145604000I243750J0D01*
G01*
X63157250Y-145604000D01*
G75*
G02*
X63401000Y-145847750I0J-243750D01*
G01*
X63401000Y-146760250D01*
G75*
G02*
X63157250Y-147004000I-243750J0D01*
G01*
X62669750Y-147004000D01*
G75*
G02*
X62426000Y-146760250I0J243750D01*
G01*
G37*
G36*
G01*
X60551000Y-146760250D02*
X60551000Y-145847750D01*
G75*
G02*
X60794750Y-145604000I243750J0D01*
G01*
X61282250Y-145604000D01*
G75*
G02*
X61526000Y-145847750I0J-243750D01*
G01*
X61526000Y-146760250D01*
G75*
G02*
X61282250Y-147004000I-243750J0D01*
G01*
X60794750Y-147004000D01*
G75*
G02*
X60551000Y-146760250I0J243750D01*
G01*
G37*
%TD*%
%TO.C,R2*%
G36*
G01*
X66822500Y-133552250D02*
X66822500Y-132639750D01*
G75*
G02*
X67066250Y-132396000I243750J0D01*
G01*
X67553750Y-132396000D01*
G75*
G02*
X67797500Y-132639750I0J-243750D01*
G01*
X67797500Y-133552250D01*
G75*
G02*
X67553750Y-133796000I-243750J0D01*
G01*
X67066250Y-133796000D01*
G75*
G02*
X66822500Y-133552250I0J243750D01*
G01*
G37*
G36*
G01*
X64947500Y-133552250D02*
X64947500Y-132639750D01*
G75*
G02*
X65191250Y-132396000I243750J0D01*
G01*
X65678750Y-132396000D01*
G75*
G02*
X65922500Y-132639750I0J-243750D01*
G01*
X65922500Y-133552250D01*
G75*
G02*
X65678750Y-133796000I-243750J0D01*
G01*
X65191250Y-133796000D01*
G75*
G02*
X64947500Y-133552250I0J243750D01*
G01*
G37*
%TD*%
%TO.C,R1*%
G36*
G01*
X62426000Y-144220250D02*
X62426000Y-143307750D01*
G75*
G02*
X62669750Y-143064000I243750J0D01*
G01*
X63157250Y-143064000D01*
G75*
G02*
X63401000Y-143307750I0J-243750D01*
G01*
X63401000Y-144220250D01*
G75*
G02*
X63157250Y-144464000I-243750J0D01*
G01*
X62669750Y-144464000D01*
G75*
G02*
X62426000Y-144220250I0J243750D01*
G01*
G37*
G36*
G01*
X60551000Y-144220250D02*
X60551000Y-143307750D01*
G75*
G02*
X60794750Y-143064000I243750J0D01*
G01*
X61282250Y-143064000D01*
G75*
G02*
X61526000Y-143307750I0J-243750D01*
G01*
X61526000Y-144220250D01*
G75*
G02*
X61282250Y-144464000I-243750J0D01*
G01*
X60794750Y-144464000D01*
G75*
G02*
X60551000Y-144220250I0J243750D01*
G01*
G37*
%TD*%
%TO.C,D2*%
G36*
G01*
X64902500Y-146047750D02*
X64902500Y-146560250D01*
G75*
G02*
X64683750Y-146779000I-218750J0D01*
G01*
X64246250Y-146779000D01*
G75*
G02*
X64027500Y-146560250I0J218750D01*
G01*
X64027500Y-146047750D01*
G75*
G02*
X64246250Y-145829000I218750J0D01*
G01*
X64683750Y-145829000D01*
G75*
G02*
X64902500Y-146047750I0J-218750D01*
G01*
G37*
G36*
G01*
X66477500Y-146047750D02*
X66477500Y-146560250D01*
G75*
G02*
X66258750Y-146779000I-218750J0D01*
G01*
X65821250Y-146779000D01*
G75*
G02*
X65602500Y-146560250I0J218750D01*
G01*
X65602500Y-146047750D01*
G75*
G02*
X65821250Y-145829000I218750J0D01*
G01*
X66258750Y-145829000D01*
G75*
G02*
X66477500Y-146047750I0J-218750D01*
G01*
G37*
%TD*%
%TO.C,D1*%
G36*
G01*
X64953500Y-143507750D02*
X64953500Y-144020250D01*
G75*
G02*
X64734750Y-144239000I-218750J0D01*
G01*
X64297250Y-144239000D01*
G75*
G02*
X64078500Y-144020250I0J218750D01*
G01*
X64078500Y-143507750D01*
G75*
G02*
X64297250Y-143289000I218750J0D01*
G01*
X64734750Y-143289000D01*
G75*
G02*
X64953500Y-143507750I0J-218750D01*
G01*
G37*
G36*
G01*
X66528500Y-143507750D02*
X66528500Y-144020250D01*
G75*
G02*
X66309750Y-144239000I-218750J0D01*
G01*
X65872250Y-144239000D01*
G75*
G02*
X65653500Y-144020250I0J218750D01*
G01*
X65653500Y-143507750D01*
G75*
G02*
X65872250Y-143289000I218750J0D01*
G01*
X66309750Y-143289000D01*
G75*
G02*
X66528500Y-143507750I0J-218750D01*
G01*
G37*
%TD*%
%TO.C,C4*%
G36*
G01*
X61410000Y-133552250D02*
X61410000Y-132639750D01*
G75*
G02*
X61653750Y-132396000I243750J0D01*
G01*
X62141250Y-132396000D01*
G75*
G02*
X62385000Y-132639750I0J-243750D01*
G01*
X62385000Y-133552250D01*
G75*
G02*
X62141250Y-133796000I-243750J0D01*
G01*
X61653750Y-133796000D01*
G75*
G02*
X61410000Y-133552250I0J243750D01*
G01*
G37*
G36*
G01*
X59535000Y-133552250D02*
X59535000Y-132639750D01*
G75*
G02*
X59778750Y-132396000I243750J0D01*
G01*
X60266250Y-132396000D01*
G75*
G02*
X60510000Y-132639750I0J-243750D01*
G01*
X60510000Y-133552250D01*
G75*
G02*
X60266250Y-133796000I-243750J0D01*
G01*
X59778750Y-133796000D01*
G75*
G02*
X59535000Y-133552250I0J243750D01*
G01*
G37*
%TD*%
%TO.C,C1*%
G36*
G01*
X56947750Y-145230000D02*
X57860250Y-145230000D01*
G75*
G02*
X58104000Y-145473750I0J-243750D01*
G01*
X58104000Y-145961250D01*
G75*
G02*
X57860250Y-146205000I-243750J0D01*
G01*
X56947750Y-146205000D01*
G75*
G02*
X56704000Y-145961250I0J243750D01*
G01*
X56704000Y-145473750D01*
G75*
G02*
X56947750Y-145230000I243750J0D01*
G01*
G37*
G36*
G01*
X56947750Y-143355000D02*
X57860250Y-143355000D01*
G75*
G02*
X58104000Y-143598750I0J-243750D01*
G01*
X58104000Y-144086250D01*
G75*
G02*
X57860250Y-144330000I-243750J0D01*
G01*
X56947750Y-144330000D01*
G75*
G02*
X56704000Y-144086250I0J243750D01*
G01*
X56704000Y-143598750D01*
G75*
G02*
X56947750Y-143355000I243750J0D01*
G01*
G37*
%TD*%
M02*
