%TF.GenerationSoftware,KiCad,Pcbnew,(5.1.6)-1*%
%TF.CreationDate,2020-06-22T18:51:59+05:30*%
%TF.ProjectId,STM8-Dev-Board-STM8S003F3P6,53544d38-2d44-4657-962d-426f6172642d,rev?*%
%TF.SameCoordinates,Original*%
%TF.FileFunction,Soldermask,Bot*%
%TF.FilePolarity,Negative*%
%FSLAX46Y46*%
G04 Gerber Fmt 4.6, Leading zero omitted, Abs format (unit mm)*
G04 Created by KiCad (PCBNEW (5.1.6)-1) date 2020-06-22 18:51:59*
%MOMM*%
%LPD*%
G01*
G04 APERTURE LIST*
%ADD10O,1.300000X2.000000*%
%ADD11C,1.550000*%
%ADD12R,1.600000X2.100000*%
%ADD13R,3.900000X2.100000*%
%ADD14O,1.800000X1.800000*%
%ADD15R,1.800000X1.800000*%
G04 APERTURE END LIST*
D10*
%TO.C,J1*%
X60000000Y-120682500D03*
X67000000Y-120682500D03*
D11*
X61000000Y-123382500D03*
X66000000Y-123382500D03*
%TD*%
D12*
%TO.C,U2*%
X61200000Y-132740000D03*
X65800000Y-132740000D03*
X63500000Y-132740000D03*
D13*
X63500000Y-139040000D03*
%TD*%
D14*
%TO.C,J4*%
X73660000Y-127000000D03*
X73660000Y-129540000D03*
X73660000Y-132080000D03*
X73660000Y-134620000D03*
X73660000Y-137160000D03*
X73660000Y-139700000D03*
X73660000Y-142240000D03*
X73660000Y-144780000D03*
X73660000Y-147320000D03*
D15*
X73660000Y-149860000D03*
%TD*%
D14*
%TO.C,J3*%
X59690000Y-149860000D03*
X62230000Y-149860000D03*
X64770000Y-149860000D03*
D15*
X67310000Y-149860000D03*
%TD*%
D14*
%TO.C,J2*%
X53340000Y-127000000D03*
X53340000Y-129540000D03*
X53340000Y-132080000D03*
X53340000Y-134620000D03*
X53340000Y-137160000D03*
X53340000Y-139700000D03*
X53340000Y-142240000D03*
X53340000Y-144780000D03*
X53340000Y-147320000D03*
D15*
X53340000Y-149860000D03*
%TD*%
%TO.C,C3*%
G36*
G01*
X62084000Y-129058750D02*
X62084000Y-130021250D01*
G75*
G02*
X61815250Y-130290000I-268750J0D01*
G01*
X61277750Y-130290000D01*
G75*
G02*
X61009000Y-130021250I0J268750D01*
G01*
X61009000Y-129058750D01*
G75*
G02*
X61277750Y-128790000I268750J0D01*
G01*
X61815250Y-128790000D01*
G75*
G02*
X62084000Y-129058750I0J-268750D01*
G01*
G37*
G36*
G01*
X63959000Y-129058750D02*
X63959000Y-130021250D01*
G75*
G02*
X63690250Y-130290000I-268750J0D01*
G01*
X63152750Y-130290000D01*
G75*
G02*
X62884000Y-130021250I0J268750D01*
G01*
X62884000Y-129058750D01*
G75*
G02*
X63152750Y-128790000I268750J0D01*
G01*
X63690250Y-128790000D01*
G75*
G02*
X63959000Y-129058750I0J-268750D01*
G01*
G37*
%TD*%
%TO.C,C2*%
G36*
G01*
X68606750Y-136290000D02*
X69569250Y-136290000D01*
G75*
G02*
X69838000Y-136558750I0J-268750D01*
G01*
X69838000Y-137096250D01*
G75*
G02*
X69569250Y-137365000I-268750J0D01*
G01*
X68606750Y-137365000D01*
G75*
G02*
X68338000Y-137096250I0J268750D01*
G01*
X68338000Y-136558750D01*
G75*
G02*
X68606750Y-136290000I268750J0D01*
G01*
G37*
G36*
G01*
X68606750Y-134415000D02*
X69569250Y-134415000D01*
G75*
G02*
X69838000Y-134683750I0J-268750D01*
G01*
X69838000Y-135221250D01*
G75*
G02*
X69569250Y-135490000I-268750J0D01*
G01*
X68606750Y-135490000D01*
G75*
G02*
X68338000Y-135221250I0J268750D01*
G01*
X68338000Y-134683750D01*
G75*
G02*
X68606750Y-134415000I268750J0D01*
G01*
G37*
%TD*%
M02*
