%TF.GenerationSoftware,KiCad,Pcbnew,(5.1.6)-1*%
%TF.CreationDate,2020-06-22T18:51:59+05:30*%
%TF.ProjectId,STM8-Dev-Board-STM8S003F3P6,53544d38-2d44-4657-962d-426f6172642d,rev?*%
%TF.SameCoordinates,Original*%
%TF.FileFunction,Legend,Top*%
%TF.FilePolarity,Positive*%
%FSLAX46Y46*%
G04 Gerber Fmt 4.6, Leading zero omitted, Abs format (unit mm)*
G04 Created by KiCad (PCBNEW (5.1.6)-1) date 2020-06-22 18:51:59*
%MOMM*%
%LPD*%
G01*
G04 APERTURE LIST*
%ADD10C,0.120000*%
%ADD11C,0.150000*%
G04 APERTURE END LIST*
D10*
%TO.C,J1*%
X67400000Y-123682500D02*
X66950000Y-123682500D01*
X67400000Y-121832500D02*
X67400000Y-123682500D01*
X59600000Y-119282500D02*
X59600000Y-119532500D01*
X67400000Y-119282500D02*
X67400000Y-119532500D01*
X59600000Y-121832500D02*
X59600000Y-123682500D01*
X59600000Y-123682500D02*
X60050000Y-123682500D01*
X65200000Y-124232500D02*
X64750000Y-124232500D01*
X65200000Y-124232500D02*
X65200000Y-123782500D01*
%TO.C,SW1*%
X64950000Y-131244000D02*
X65440000Y-130754000D01*
X62050000Y-131244000D02*
X64950000Y-131244000D01*
X62050000Y-131244000D02*
X61560000Y-130754000D01*
X62050000Y-125804000D02*
X64950000Y-125804000D01*
X62050000Y-125804000D02*
X61560000Y-126294000D01*
X66220000Y-129564000D02*
X66220000Y-127484000D01*
X64950000Y-125804000D02*
X65440000Y-126294000D01*
X60780000Y-129564000D02*
X60780000Y-127484000D01*
%TO.C,U1*%
X63500000Y-141561000D02*
X65700000Y-141561000D01*
X63500000Y-141561000D02*
X61300000Y-141561000D01*
X63500000Y-134791000D02*
X65700000Y-134791000D01*
X63500000Y-134791000D02*
X59900000Y-134791000D01*
%TO.C,R3*%
X61717422Y-145594000D02*
X62234578Y-145594000D01*
X61717422Y-147014000D02*
X62234578Y-147014000D01*
%TO.C,R2*%
X66113922Y-132386000D02*
X66631078Y-132386000D01*
X66113922Y-133806000D02*
X66631078Y-133806000D01*
%TO.C,R1*%
X61717422Y-143054000D02*
X62234578Y-143054000D01*
X61717422Y-144474000D02*
X62234578Y-144474000D01*
%TO.C,J3*%
X58360000Y-148530000D02*
X58360000Y-151190000D01*
X66040000Y-148530000D02*
X58360000Y-148530000D01*
X66040000Y-151190000D02*
X58360000Y-151190000D01*
X66040000Y-148530000D02*
X66040000Y-151190000D01*
X67310000Y-148530000D02*
X68640000Y-148530000D01*
X68640000Y-148530000D02*
X68640000Y-149860000D01*
%TO.C,D2*%
X64452500Y-147039000D02*
X66737500Y-147039000D01*
X66737500Y-147039000D02*
X66737500Y-145569000D01*
X66737500Y-145569000D02*
X64452500Y-145569000D01*
%TO.C,D1*%
X64503500Y-144499000D02*
X66788500Y-144499000D01*
X66788500Y-144499000D02*
X66788500Y-143029000D01*
X66788500Y-143029000D02*
X64503500Y-143029000D01*
%TO.C,C4*%
X60701422Y-132386000D02*
X61218578Y-132386000D01*
X60701422Y-133806000D02*
X61218578Y-133806000D01*
%TO.C,C1*%
X58114000Y-144521422D02*
X58114000Y-145038578D01*
X56694000Y-144521422D02*
X56694000Y-145038578D01*
%TO.C,J1*%
D11*
X63166666Y-124484880D02*
X63166666Y-125199166D01*
X63119047Y-125342023D01*
X63023809Y-125437261D01*
X62880952Y-125484880D01*
X62785714Y-125484880D01*
X64166666Y-125484880D02*
X63595238Y-125484880D01*
X63880952Y-125484880D02*
X63880952Y-124484880D01*
X63785714Y-124627738D01*
X63690476Y-124722976D01*
X63595238Y-124770595D01*
%TO.C,SW1*%
X62166666Y-125328761D02*
X62309523Y-125376380D01*
X62547619Y-125376380D01*
X62642857Y-125328761D01*
X62690476Y-125281142D01*
X62738095Y-125185904D01*
X62738095Y-125090666D01*
X62690476Y-124995428D01*
X62642857Y-124947809D01*
X62547619Y-124900190D01*
X62357142Y-124852571D01*
X62261904Y-124804952D01*
X62214285Y-124757333D01*
X62166666Y-124662095D01*
X62166666Y-124566857D01*
X62214285Y-124471619D01*
X62261904Y-124424000D01*
X62357142Y-124376380D01*
X62595238Y-124376380D01*
X62738095Y-124424000D01*
X63071428Y-124376380D02*
X63309523Y-125376380D01*
X63500000Y-124662095D01*
X63690476Y-125376380D01*
X63928571Y-124376380D01*
X64833333Y-125376380D02*
X64261904Y-125376380D01*
X64547619Y-125376380D02*
X64547619Y-124376380D01*
X64452380Y-124519238D01*
X64357142Y-124614476D01*
X64261904Y-124662095D01*
%TO.C,U1*%
X62738095Y-133428380D02*
X62738095Y-134237904D01*
X62785714Y-134333142D01*
X62833333Y-134380761D01*
X62928571Y-134428380D01*
X63119047Y-134428380D01*
X63214285Y-134380761D01*
X63261904Y-134333142D01*
X63309523Y-134237904D01*
X63309523Y-133428380D01*
X64309523Y-134428380D02*
X63738095Y-134428380D01*
X64023809Y-134428380D02*
X64023809Y-133428380D01*
X63928571Y-133571238D01*
X63833333Y-133666476D01*
X63738095Y-133714095D01*
%TO.C,R3*%
X61809333Y-145106380D02*
X61476000Y-144630190D01*
X61237904Y-145106380D02*
X61237904Y-144106380D01*
X61618857Y-144106380D01*
X61714095Y-144154000D01*
X61761714Y-144201619D01*
X61809333Y-144296857D01*
X61809333Y-144439714D01*
X61761714Y-144534952D01*
X61714095Y-144582571D01*
X61618857Y-144630190D01*
X61237904Y-144630190D01*
X62142666Y-144106380D02*
X62761714Y-144106380D01*
X62428380Y-144487333D01*
X62571238Y-144487333D01*
X62666476Y-144534952D01*
X62714095Y-144582571D01*
X62761714Y-144677809D01*
X62761714Y-144915904D01*
X62714095Y-145011142D01*
X62666476Y-145058761D01*
X62571238Y-145106380D01*
X62285523Y-145106380D01*
X62190285Y-145058761D01*
X62142666Y-145011142D01*
%TO.C,R2*%
X66205833Y-131898380D02*
X65872500Y-131422190D01*
X65634404Y-131898380D02*
X65634404Y-130898380D01*
X66015357Y-130898380D01*
X66110595Y-130946000D01*
X66158214Y-130993619D01*
X66205833Y-131088857D01*
X66205833Y-131231714D01*
X66158214Y-131326952D01*
X66110595Y-131374571D01*
X66015357Y-131422190D01*
X65634404Y-131422190D01*
X66586785Y-130993619D02*
X66634404Y-130946000D01*
X66729642Y-130898380D01*
X66967738Y-130898380D01*
X67062976Y-130946000D01*
X67110595Y-130993619D01*
X67158214Y-131088857D01*
X67158214Y-131184095D01*
X67110595Y-131326952D01*
X66539166Y-131898380D01*
X67158214Y-131898380D01*
%TO.C,R1*%
X61809333Y-142566380D02*
X61476000Y-142090190D01*
X61237904Y-142566380D02*
X61237904Y-141566380D01*
X61618857Y-141566380D01*
X61714095Y-141614000D01*
X61761714Y-141661619D01*
X61809333Y-141756857D01*
X61809333Y-141899714D01*
X61761714Y-141994952D01*
X61714095Y-142042571D01*
X61618857Y-142090190D01*
X61237904Y-142090190D01*
X62761714Y-142566380D02*
X62190285Y-142566380D01*
X62476000Y-142566380D02*
X62476000Y-141566380D01*
X62380761Y-141709238D01*
X62285523Y-141804476D01*
X62190285Y-141852095D01*
%TO.C,J3*%
X69092380Y-150193333D02*
X69806666Y-150193333D01*
X69949523Y-150240952D01*
X70044761Y-150336190D01*
X70092380Y-150479047D01*
X70092380Y-150574285D01*
X69092380Y-149812380D02*
X69092380Y-149193333D01*
X69473333Y-149526666D01*
X69473333Y-149383809D01*
X69520952Y-149288571D01*
X69568571Y-149240952D01*
X69663809Y-149193333D01*
X69901904Y-149193333D01*
X69997142Y-149240952D01*
X70044761Y-149288571D01*
X70092380Y-149383809D01*
X70092380Y-149669523D01*
X70044761Y-149764761D01*
X69997142Y-149812380D01*
%TO.C,D2*%
X64514404Y-148186380D02*
X64514404Y-147186380D01*
X64752500Y-147186380D01*
X64895357Y-147234000D01*
X64990595Y-147329238D01*
X65038214Y-147424476D01*
X65085833Y-147614952D01*
X65085833Y-147757809D01*
X65038214Y-147948285D01*
X64990595Y-148043523D01*
X64895357Y-148138761D01*
X64752500Y-148186380D01*
X64514404Y-148186380D01*
X65466785Y-147281619D02*
X65514404Y-147234000D01*
X65609642Y-147186380D01*
X65847738Y-147186380D01*
X65942976Y-147234000D01*
X65990595Y-147281619D01*
X66038214Y-147376857D01*
X66038214Y-147472095D01*
X65990595Y-147614952D01*
X65419166Y-148186380D01*
X66038214Y-148186380D01*
%TO.C,D1*%
X64565404Y-145646380D02*
X64565404Y-144646380D01*
X64803500Y-144646380D01*
X64946357Y-144694000D01*
X65041595Y-144789238D01*
X65089214Y-144884476D01*
X65136833Y-145074952D01*
X65136833Y-145217809D01*
X65089214Y-145408285D01*
X65041595Y-145503523D01*
X64946357Y-145598761D01*
X64803500Y-145646380D01*
X64565404Y-145646380D01*
X66089214Y-145646380D02*
X65517785Y-145646380D01*
X65803500Y-145646380D02*
X65803500Y-144646380D01*
X65708261Y-144789238D01*
X65613023Y-144884476D01*
X65517785Y-144932095D01*
%TO.C,C4*%
X60793333Y-131803142D02*
X60745714Y-131850761D01*
X60602857Y-131898380D01*
X60507619Y-131898380D01*
X60364761Y-131850761D01*
X60269523Y-131755523D01*
X60221904Y-131660285D01*
X60174285Y-131469809D01*
X60174285Y-131326952D01*
X60221904Y-131136476D01*
X60269523Y-131041238D01*
X60364761Y-130946000D01*
X60507619Y-130898380D01*
X60602857Y-130898380D01*
X60745714Y-130946000D01*
X60793333Y-130993619D01*
X61650476Y-131231714D02*
X61650476Y-131898380D01*
X61412380Y-130850761D02*
X61174285Y-131565047D01*
X61793333Y-131565047D01*
%TO.C,C1*%
X59411142Y-144946666D02*
X59458761Y-144994285D01*
X59506380Y-145137142D01*
X59506380Y-145232380D01*
X59458761Y-145375238D01*
X59363523Y-145470476D01*
X59268285Y-145518095D01*
X59077809Y-145565714D01*
X58934952Y-145565714D01*
X58744476Y-145518095D01*
X58649238Y-145470476D01*
X58554000Y-145375238D01*
X58506380Y-145232380D01*
X58506380Y-145137142D01*
X58554000Y-144994285D01*
X58601619Y-144946666D01*
X59506380Y-143994285D02*
X59506380Y-144565714D01*
X59506380Y-144280000D02*
X58506380Y-144280000D01*
X58649238Y-144375238D01*
X58744476Y-144470476D01*
X58792095Y-144565714D01*
%TD*%
M02*
