%TF.GenerationSoftware,KiCad,Pcbnew,(5.1.6)-1*%
%TF.CreationDate,2020-06-22T18:51:59+05:30*%
%TF.ProjectId,STM8-Dev-Board-STM8S003F3P6,53544d38-2d44-4657-962d-426f6172642d,rev?*%
%TF.SameCoordinates,Original*%
%TF.FileFunction,Copper,L1,Top*%
%TF.FilePolarity,Positive*%
%FSLAX46Y46*%
G04 Gerber Fmt 4.6, Leading zero omitted, Abs format (unit mm)*
G04 Created by KiCad (PCBNEW (5.1.6)-1) date 2020-06-22 18:51:59*
%MOMM*%
%LPD*%
G01*
G04 APERTURE LIST*
%TA.AperFunction,SMDPad,CuDef*%
%ADD10R,1.200000X1.900000*%
%TD*%
%TA.AperFunction,ComponentPad*%
%ADD11O,1.200000X1.900000*%
%TD*%
%TA.AperFunction,SMDPad,CuDef*%
%ADD12R,1.500000X1.900000*%
%TD*%
%TA.AperFunction,ComponentPad*%
%ADD13C,1.450000*%
%TD*%
%TA.AperFunction,SMDPad,CuDef*%
%ADD14R,0.400000X1.350000*%
%TD*%
%TA.AperFunction,SMDPad,CuDef*%
%ADD15R,1.800000X1.100000*%
%TD*%
%TA.AperFunction,ComponentPad*%
%ADD16O,1.700000X1.700000*%
%TD*%
%TA.AperFunction,ComponentPad*%
%ADD17R,1.700000X1.700000*%
%TD*%
%TA.AperFunction,ViaPad*%
%ADD18C,0.800000*%
%TD*%
%TA.AperFunction,Conductor*%
%ADD19C,0.250000*%
%TD*%
%TA.AperFunction,Conductor*%
%ADD20C,0.254000*%
%TD*%
G04 APERTURE END LIST*
D10*
%TO.P,J1,6*%
%TO.N,Net-(J1-Pad6)*%
X66400000Y-120682500D03*
X60600000Y-120682500D03*
D11*
X60000000Y-120682500D03*
X67000000Y-120682500D03*
D12*
X64500000Y-120682500D03*
D13*
X61000000Y-123382500D03*
D14*
%TO.P,J1,3*%
%TO.N,Net-(J1-Pad3)*%
X63500000Y-123382500D03*
%TO.P,J1,4*%
%TO.N,Net-(J1-Pad4)*%
X62850000Y-123382500D03*
%TO.P,J1,5*%
%TO.N,GND*%
X62200000Y-123382500D03*
%TO.P,J1,1*%
%TO.N,Net-(C2-Pad1)*%
X64800000Y-123382500D03*
%TO.P,J1,2*%
%TO.N,Net-(J1-Pad2)*%
X64150000Y-123382500D03*
D13*
%TO.P,J1,6*%
%TO.N,Net-(J1-Pad6)*%
X66000000Y-123382500D03*
D12*
X62500000Y-120682500D03*
%TD*%
D15*
%TO.P,SW1,2*%
%TO.N,GND*%
X66600000Y-130374000D03*
X60400000Y-130374000D03*
%TO.P,SW1,1*%
%TO.N,Net-(C4-Pad1)*%
X66600000Y-126674000D03*
X60400000Y-126674000D03*
%TD*%
%TO.P,U1,20*%
%TO.N,PD3*%
%TA.AperFunction,SMDPad,CuDef*%
G36*
G01*
X65625000Y-135351000D02*
X65625000Y-135151000D01*
G75*
G02*
X65725000Y-135051000I100000J0D01*
G01*
X67000000Y-135051000D01*
G75*
G02*
X67100000Y-135151000I0J-100000D01*
G01*
X67100000Y-135351000D01*
G75*
G02*
X67000000Y-135451000I-100000J0D01*
G01*
X65725000Y-135451000D01*
G75*
G02*
X65625000Y-135351000I0J100000D01*
G01*
G37*
%TD.AperFunction*%
%TO.P,U1,19*%
%TO.N,PD2*%
%TA.AperFunction,SMDPad,CuDef*%
G36*
G01*
X65625000Y-136001000D02*
X65625000Y-135801000D01*
G75*
G02*
X65725000Y-135701000I100000J0D01*
G01*
X67000000Y-135701000D01*
G75*
G02*
X67100000Y-135801000I0J-100000D01*
G01*
X67100000Y-136001000D01*
G75*
G02*
X67000000Y-136101000I-100000J0D01*
G01*
X65725000Y-136101000D01*
G75*
G02*
X65625000Y-136001000I0J100000D01*
G01*
G37*
%TD.AperFunction*%
%TO.P,U1,18*%
%TO.N,PD1+SWIM*%
%TA.AperFunction,SMDPad,CuDef*%
G36*
G01*
X65625000Y-136651000D02*
X65625000Y-136451000D01*
G75*
G02*
X65725000Y-136351000I100000J0D01*
G01*
X67000000Y-136351000D01*
G75*
G02*
X67100000Y-136451000I0J-100000D01*
G01*
X67100000Y-136651000D01*
G75*
G02*
X67000000Y-136751000I-100000J0D01*
G01*
X65725000Y-136751000D01*
G75*
G02*
X65625000Y-136651000I0J100000D01*
G01*
G37*
%TD.AperFunction*%
%TO.P,U1,17*%
%TO.N,PC7*%
%TA.AperFunction,SMDPad,CuDef*%
G36*
G01*
X65625000Y-137301000D02*
X65625000Y-137101000D01*
G75*
G02*
X65725000Y-137001000I100000J0D01*
G01*
X67000000Y-137001000D01*
G75*
G02*
X67100000Y-137101000I0J-100000D01*
G01*
X67100000Y-137301000D01*
G75*
G02*
X67000000Y-137401000I-100000J0D01*
G01*
X65725000Y-137401000D01*
G75*
G02*
X65625000Y-137301000I0J100000D01*
G01*
G37*
%TD.AperFunction*%
%TO.P,U1,16*%
%TO.N,PC6*%
%TA.AperFunction,SMDPad,CuDef*%
G36*
G01*
X65625000Y-137951000D02*
X65625000Y-137751000D01*
G75*
G02*
X65725000Y-137651000I100000J0D01*
G01*
X67000000Y-137651000D01*
G75*
G02*
X67100000Y-137751000I0J-100000D01*
G01*
X67100000Y-137951000D01*
G75*
G02*
X67000000Y-138051000I-100000J0D01*
G01*
X65725000Y-138051000D01*
G75*
G02*
X65625000Y-137951000I0J100000D01*
G01*
G37*
%TD.AperFunction*%
%TO.P,U1,15*%
%TO.N,PC5*%
%TA.AperFunction,SMDPad,CuDef*%
G36*
G01*
X65625000Y-138601000D02*
X65625000Y-138401000D01*
G75*
G02*
X65725000Y-138301000I100000J0D01*
G01*
X67000000Y-138301000D01*
G75*
G02*
X67100000Y-138401000I0J-100000D01*
G01*
X67100000Y-138601000D01*
G75*
G02*
X67000000Y-138701000I-100000J0D01*
G01*
X65725000Y-138701000D01*
G75*
G02*
X65625000Y-138601000I0J100000D01*
G01*
G37*
%TD.AperFunction*%
%TO.P,U1,14*%
%TO.N,PC4*%
%TA.AperFunction,SMDPad,CuDef*%
G36*
G01*
X65625000Y-139251000D02*
X65625000Y-139051000D01*
G75*
G02*
X65725000Y-138951000I100000J0D01*
G01*
X67000000Y-138951000D01*
G75*
G02*
X67100000Y-139051000I0J-100000D01*
G01*
X67100000Y-139251000D01*
G75*
G02*
X67000000Y-139351000I-100000J0D01*
G01*
X65725000Y-139351000D01*
G75*
G02*
X65625000Y-139251000I0J100000D01*
G01*
G37*
%TD.AperFunction*%
%TO.P,U1,13*%
%TO.N,PC3*%
%TA.AperFunction,SMDPad,CuDef*%
G36*
G01*
X65625000Y-139901000D02*
X65625000Y-139701000D01*
G75*
G02*
X65725000Y-139601000I100000J0D01*
G01*
X67000000Y-139601000D01*
G75*
G02*
X67100000Y-139701000I0J-100000D01*
G01*
X67100000Y-139901000D01*
G75*
G02*
X67000000Y-140001000I-100000J0D01*
G01*
X65725000Y-140001000D01*
G75*
G02*
X65625000Y-139901000I0J100000D01*
G01*
G37*
%TD.AperFunction*%
%TO.P,U1,12*%
%TO.N,PB4*%
%TA.AperFunction,SMDPad,CuDef*%
G36*
G01*
X65625000Y-140551000D02*
X65625000Y-140351000D01*
G75*
G02*
X65725000Y-140251000I100000J0D01*
G01*
X67000000Y-140251000D01*
G75*
G02*
X67100000Y-140351000I0J-100000D01*
G01*
X67100000Y-140551000D01*
G75*
G02*
X67000000Y-140651000I-100000J0D01*
G01*
X65725000Y-140651000D01*
G75*
G02*
X65625000Y-140551000I0J100000D01*
G01*
G37*
%TD.AperFunction*%
%TO.P,U1,11*%
%TO.N,PB5*%
%TA.AperFunction,SMDPad,CuDef*%
G36*
G01*
X65625000Y-141201000D02*
X65625000Y-141001000D01*
G75*
G02*
X65725000Y-140901000I100000J0D01*
G01*
X67000000Y-140901000D01*
G75*
G02*
X67100000Y-141001000I0J-100000D01*
G01*
X67100000Y-141201000D01*
G75*
G02*
X67000000Y-141301000I-100000J0D01*
G01*
X65725000Y-141301000D01*
G75*
G02*
X65625000Y-141201000I0J100000D01*
G01*
G37*
%TD.AperFunction*%
%TO.P,U1,10*%
%TO.N,PA3*%
%TA.AperFunction,SMDPad,CuDef*%
G36*
G01*
X59900000Y-141201000D02*
X59900000Y-141001000D01*
G75*
G02*
X60000000Y-140901000I100000J0D01*
G01*
X61275000Y-140901000D01*
G75*
G02*
X61375000Y-141001000I0J-100000D01*
G01*
X61375000Y-141201000D01*
G75*
G02*
X61275000Y-141301000I-100000J0D01*
G01*
X60000000Y-141301000D01*
G75*
G02*
X59900000Y-141201000I0J100000D01*
G01*
G37*
%TD.AperFunction*%
%TO.P,U1,9*%
%TO.N,+3V3*%
%TA.AperFunction,SMDPad,CuDef*%
G36*
G01*
X59900000Y-140551000D02*
X59900000Y-140351000D01*
G75*
G02*
X60000000Y-140251000I100000J0D01*
G01*
X61275000Y-140251000D01*
G75*
G02*
X61375000Y-140351000I0J-100000D01*
G01*
X61375000Y-140551000D01*
G75*
G02*
X61275000Y-140651000I-100000J0D01*
G01*
X60000000Y-140651000D01*
G75*
G02*
X59900000Y-140551000I0J100000D01*
G01*
G37*
%TD.AperFunction*%
%TO.P,U1,8*%
%TO.N,VCAP*%
%TA.AperFunction,SMDPad,CuDef*%
G36*
G01*
X59900000Y-139901000D02*
X59900000Y-139701000D01*
G75*
G02*
X60000000Y-139601000I100000J0D01*
G01*
X61275000Y-139601000D01*
G75*
G02*
X61375000Y-139701000I0J-100000D01*
G01*
X61375000Y-139901000D01*
G75*
G02*
X61275000Y-140001000I-100000J0D01*
G01*
X60000000Y-140001000D01*
G75*
G02*
X59900000Y-139901000I0J100000D01*
G01*
G37*
%TD.AperFunction*%
%TO.P,U1,7*%
%TO.N,GND*%
%TA.AperFunction,SMDPad,CuDef*%
G36*
G01*
X59900000Y-139251000D02*
X59900000Y-139051000D01*
G75*
G02*
X60000000Y-138951000I100000J0D01*
G01*
X61275000Y-138951000D01*
G75*
G02*
X61375000Y-139051000I0J-100000D01*
G01*
X61375000Y-139251000D01*
G75*
G02*
X61275000Y-139351000I-100000J0D01*
G01*
X60000000Y-139351000D01*
G75*
G02*
X59900000Y-139251000I0J100000D01*
G01*
G37*
%TD.AperFunction*%
%TO.P,U1,6*%
%TO.N,PA2*%
%TA.AperFunction,SMDPad,CuDef*%
G36*
G01*
X59900000Y-138601000D02*
X59900000Y-138401000D01*
G75*
G02*
X60000000Y-138301000I100000J0D01*
G01*
X61275000Y-138301000D01*
G75*
G02*
X61375000Y-138401000I0J-100000D01*
G01*
X61375000Y-138601000D01*
G75*
G02*
X61275000Y-138701000I-100000J0D01*
G01*
X60000000Y-138701000D01*
G75*
G02*
X59900000Y-138601000I0J100000D01*
G01*
G37*
%TD.AperFunction*%
%TO.P,U1,5*%
%TO.N,PA1*%
%TA.AperFunction,SMDPad,CuDef*%
G36*
G01*
X59900000Y-137951000D02*
X59900000Y-137751000D01*
G75*
G02*
X60000000Y-137651000I100000J0D01*
G01*
X61275000Y-137651000D01*
G75*
G02*
X61375000Y-137751000I0J-100000D01*
G01*
X61375000Y-137951000D01*
G75*
G02*
X61275000Y-138051000I-100000J0D01*
G01*
X60000000Y-138051000D01*
G75*
G02*
X59900000Y-137951000I0J100000D01*
G01*
G37*
%TD.AperFunction*%
%TO.P,U1,4*%
%TO.N,NRST*%
%TA.AperFunction,SMDPad,CuDef*%
G36*
G01*
X59900000Y-137301000D02*
X59900000Y-137101000D01*
G75*
G02*
X60000000Y-137001000I100000J0D01*
G01*
X61275000Y-137001000D01*
G75*
G02*
X61375000Y-137101000I0J-100000D01*
G01*
X61375000Y-137301000D01*
G75*
G02*
X61275000Y-137401000I-100000J0D01*
G01*
X60000000Y-137401000D01*
G75*
G02*
X59900000Y-137301000I0J100000D01*
G01*
G37*
%TD.AperFunction*%
%TO.P,U1,3*%
%TO.N,PD6*%
%TA.AperFunction,SMDPad,CuDef*%
G36*
G01*
X59900000Y-136651000D02*
X59900000Y-136451000D01*
G75*
G02*
X60000000Y-136351000I100000J0D01*
G01*
X61275000Y-136351000D01*
G75*
G02*
X61375000Y-136451000I0J-100000D01*
G01*
X61375000Y-136651000D01*
G75*
G02*
X61275000Y-136751000I-100000J0D01*
G01*
X60000000Y-136751000D01*
G75*
G02*
X59900000Y-136651000I0J100000D01*
G01*
G37*
%TD.AperFunction*%
%TO.P,U1,2*%
%TO.N,PD5*%
%TA.AperFunction,SMDPad,CuDef*%
G36*
G01*
X59900000Y-136001000D02*
X59900000Y-135801000D01*
G75*
G02*
X60000000Y-135701000I100000J0D01*
G01*
X61275000Y-135701000D01*
G75*
G02*
X61375000Y-135801000I0J-100000D01*
G01*
X61375000Y-136001000D01*
G75*
G02*
X61275000Y-136101000I-100000J0D01*
G01*
X60000000Y-136101000D01*
G75*
G02*
X59900000Y-136001000I0J100000D01*
G01*
G37*
%TD.AperFunction*%
%TO.P,U1,1*%
%TO.N,PD4*%
%TA.AperFunction,SMDPad,CuDef*%
G36*
G01*
X59900000Y-135351000D02*
X59900000Y-135151000D01*
G75*
G02*
X60000000Y-135051000I100000J0D01*
G01*
X61275000Y-135051000D01*
G75*
G02*
X61375000Y-135151000I0J-100000D01*
G01*
X61375000Y-135351000D01*
G75*
G02*
X61275000Y-135451000I-100000J0D01*
G01*
X60000000Y-135451000D01*
G75*
G02*
X59900000Y-135351000I0J100000D01*
G01*
G37*
%TD.AperFunction*%
%TD*%
%TO.P,R3,2*%
%TO.N,Net-(D2-Pad2)*%
%TA.AperFunction,SMDPad,CuDef*%
G36*
G01*
X62426000Y-146760250D02*
X62426000Y-145847750D01*
G75*
G02*
X62669750Y-145604000I243750J0D01*
G01*
X63157250Y-145604000D01*
G75*
G02*
X63401000Y-145847750I0J-243750D01*
G01*
X63401000Y-146760250D01*
G75*
G02*
X63157250Y-147004000I-243750J0D01*
G01*
X62669750Y-147004000D01*
G75*
G02*
X62426000Y-146760250I0J243750D01*
G01*
G37*
%TD.AperFunction*%
%TO.P,R3,1*%
%TO.N,+3V3*%
%TA.AperFunction,SMDPad,CuDef*%
G36*
G01*
X60551000Y-146760250D02*
X60551000Y-145847750D01*
G75*
G02*
X60794750Y-145604000I243750J0D01*
G01*
X61282250Y-145604000D01*
G75*
G02*
X61526000Y-145847750I0J-243750D01*
G01*
X61526000Y-146760250D01*
G75*
G02*
X61282250Y-147004000I-243750J0D01*
G01*
X60794750Y-147004000D01*
G75*
G02*
X60551000Y-146760250I0J243750D01*
G01*
G37*
%TD.AperFunction*%
%TD*%
%TO.P,R2,2*%
%TO.N,Net-(C4-Pad1)*%
%TA.AperFunction,SMDPad,CuDef*%
G36*
G01*
X66822500Y-133552250D02*
X66822500Y-132639750D01*
G75*
G02*
X67066250Y-132396000I243750J0D01*
G01*
X67553750Y-132396000D01*
G75*
G02*
X67797500Y-132639750I0J-243750D01*
G01*
X67797500Y-133552250D01*
G75*
G02*
X67553750Y-133796000I-243750J0D01*
G01*
X67066250Y-133796000D01*
G75*
G02*
X66822500Y-133552250I0J243750D01*
G01*
G37*
%TD.AperFunction*%
%TO.P,R2,1*%
%TO.N,+3V3*%
%TA.AperFunction,SMDPad,CuDef*%
G36*
G01*
X64947500Y-133552250D02*
X64947500Y-132639750D01*
G75*
G02*
X65191250Y-132396000I243750J0D01*
G01*
X65678750Y-132396000D01*
G75*
G02*
X65922500Y-132639750I0J-243750D01*
G01*
X65922500Y-133552250D01*
G75*
G02*
X65678750Y-133796000I-243750J0D01*
G01*
X65191250Y-133796000D01*
G75*
G02*
X64947500Y-133552250I0J243750D01*
G01*
G37*
%TD.AperFunction*%
%TD*%
%TO.P,R1,2*%
%TO.N,Net-(D1-Pad2)*%
%TA.AperFunction,SMDPad,CuDef*%
G36*
G01*
X62426000Y-144220250D02*
X62426000Y-143307750D01*
G75*
G02*
X62669750Y-143064000I243750J0D01*
G01*
X63157250Y-143064000D01*
G75*
G02*
X63401000Y-143307750I0J-243750D01*
G01*
X63401000Y-144220250D01*
G75*
G02*
X63157250Y-144464000I-243750J0D01*
G01*
X62669750Y-144464000D01*
G75*
G02*
X62426000Y-144220250I0J243750D01*
G01*
G37*
%TD.AperFunction*%
%TO.P,R1,1*%
%TO.N,+3V3*%
%TA.AperFunction,SMDPad,CuDef*%
G36*
G01*
X60551000Y-144220250D02*
X60551000Y-143307750D01*
G75*
G02*
X60794750Y-143064000I243750J0D01*
G01*
X61282250Y-143064000D01*
G75*
G02*
X61526000Y-143307750I0J-243750D01*
G01*
X61526000Y-144220250D01*
G75*
G02*
X61282250Y-144464000I-243750J0D01*
G01*
X60794750Y-144464000D01*
G75*
G02*
X60551000Y-144220250I0J243750D01*
G01*
G37*
%TD.AperFunction*%
%TD*%
D16*
%TO.P,J4,10*%
%TO.N,PD3*%
X73660000Y-127000000D03*
%TO.P,J4,9*%
%TO.N,PD2*%
X73660000Y-129540000D03*
%TO.P,J4,8*%
%TO.N,PD1*%
X73660000Y-132080000D03*
%TO.P,J4,7*%
%TO.N,PC7*%
X73660000Y-134620000D03*
%TO.P,J4,6*%
%TO.N,PC6*%
X73660000Y-137160000D03*
%TO.P,J4,5*%
%TO.N,PC5*%
X73660000Y-139700000D03*
%TO.P,J4,4*%
%TO.N,PC4*%
X73660000Y-142240000D03*
%TO.P,J4,3*%
%TO.N,PC3*%
X73660000Y-144780000D03*
%TO.P,J4,2*%
%TO.N,PB4*%
X73660000Y-147320000D03*
D17*
%TO.P,J4,1*%
%TO.N,PB5*%
X73660000Y-149860000D03*
%TD*%
D16*
%TO.P,J3,4*%
%TO.N,NRST*%
X59690000Y-149860000D03*
%TO.P,J3,3*%
%TO.N,GND*%
X62230000Y-149860000D03*
%TO.P,J3,2*%
%TO.N,PD1+SWIM*%
X64770000Y-149860000D03*
D17*
%TO.P,J3,1*%
%TO.N,+3V3*%
X67310000Y-149860000D03*
%TD*%
D16*
%TO.P,J2,10*%
%TO.N,PD4*%
X53340000Y-127000000D03*
%TO.P,J2,9*%
%TO.N,PD5*%
X53340000Y-129540000D03*
%TO.P,J2,8*%
%TO.N,PD6*%
X53340000Y-132080000D03*
%TO.P,J2,7*%
%TO.N,NRST*%
X53340000Y-134620000D03*
%TO.P,J2,6*%
%TO.N,PA1*%
X53340000Y-137160000D03*
%TO.P,J2,5*%
%TO.N,PA2*%
X53340000Y-139700000D03*
%TO.P,J2,4*%
%TO.N,GND*%
X53340000Y-142240000D03*
%TO.P,J2,3*%
%TO.N,VCAP*%
X53340000Y-144780000D03*
%TO.P,J2,2*%
%TO.N,+3.3V*%
X53340000Y-147320000D03*
D17*
%TO.P,J2,1*%
%TO.N,PA3*%
X53340000Y-149860000D03*
%TD*%
%TO.P,D2,2*%
%TO.N,Net-(D2-Pad2)*%
%TA.AperFunction,SMDPad,CuDef*%
G36*
G01*
X64902500Y-146047750D02*
X64902500Y-146560250D01*
G75*
G02*
X64683750Y-146779000I-218750J0D01*
G01*
X64246250Y-146779000D01*
G75*
G02*
X64027500Y-146560250I0J218750D01*
G01*
X64027500Y-146047750D01*
G75*
G02*
X64246250Y-145829000I218750J0D01*
G01*
X64683750Y-145829000D01*
G75*
G02*
X64902500Y-146047750I0J-218750D01*
G01*
G37*
%TD.AperFunction*%
%TO.P,D2,1*%
%TO.N,GND*%
%TA.AperFunction,SMDPad,CuDef*%
G36*
G01*
X66477500Y-146047750D02*
X66477500Y-146560250D01*
G75*
G02*
X66258750Y-146779000I-218750J0D01*
G01*
X65821250Y-146779000D01*
G75*
G02*
X65602500Y-146560250I0J218750D01*
G01*
X65602500Y-146047750D01*
G75*
G02*
X65821250Y-145829000I218750J0D01*
G01*
X66258750Y-145829000D01*
G75*
G02*
X66477500Y-146047750I0J-218750D01*
G01*
G37*
%TD.AperFunction*%
%TD*%
%TO.P,D1,2*%
%TO.N,Net-(D1-Pad2)*%
%TA.AperFunction,SMDPad,CuDef*%
G36*
G01*
X64953500Y-143507750D02*
X64953500Y-144020250D01*
G75*
G02*
X64734750Y-144239000I-218750J0D01*
G01*
X64297250Y-144239000D01*
G75*
G02*
X64078500Y-144020250I0J218750D01*
G01*
X64078500Y-143507750D01*
G75*
G02*
X64297250Y-143289000I218750J0D01*
G01*
X64734750Y-143289000D01*
G75*
G02*
X64953500Y-143507750I0J-218750D01*
G01*
G37*
%TD.AperFunction*%
%TO.P,D1,1*%
%TO.N,PB5*%
%TA.AperFunction,SMDPad,CuDef*%
G36*
G01*
X66528500Y-143507750D02*
X66528500Y-144020250D01*
G75*
G02*
X66309750Y-144239000I-218750J0D01*
G01*
X65872250Y-144239000D01*
G75*
G02*
X65653500Y-144020250I0J218750D01*
G01*
X65653500Y-143507750D01*
G75*
G02*
X65872250Y-143289000I218750J0D01*
G01*
X66309750Y-143289000D01*
G75*
G02*
X66528500Y-143507750I0J-218750D01*
G01*
G37*
%TD.AperFunction*%
%TD*%
%TO.P,C4,2*%
%TO.N,GND*%
%TA.AperFunction,SMDPad,CuDef*%
G36*
G01*
X61410000Y-133552250D02*
X61410000Y-132639750D01*
G75*
G02*
X61653750Y-132396000I243750J0D01*
G01*
X62141250Y-132396000D01*
G75*
G02*
X62385000Y-132639750I0J-243750D01*
G01*
X62385000Y-133552250D01*
G75*
G02*
X62141250Y-133796000I-243750J0D01*
G01*
X61653750Y-133796000D01*
G75*
G02*
X61410000Y-133552250I0J243750D01*
G01*
G37*
%TD.AperFunction*%
%TO.P,C4,1*%
%TO.N,Net-(C4-Pad1)*%
%TA.AperFunction,SMDPad,CuDef*%
G36*
G01*
X59535000Y-133552250D02*
X59535000Y-132639750D01*
G75*
G02*
X59778750Y-132396000I243750J0D01*
G01*
X60266250Y-132396000D01*
G75*
G02*
X60510000Y-132639750I0J-243750D01*
G01*
X60510000Y-133552250D01*
G75*
G02*
X60266250Y-133796000I-243750J0D01*
G01*
X59778750Y-133796000D01*
G75*
G02*
X59535000Y-133552250I0J243750D01*
G01*
G37*
%TD.AperFunction*%
%TD*%
%TO.P,C1,2*%
%TO.N,GND*%
%TA.AperFunction,SMDPad,CuDef*%
G36*
G01*
X56947750Y-145230000D02*
X57860250Y-145230000D01*
G75*
G02*
X58104000Y-145473750I0J-243750D01*
G01*
X58104000Y-145961250D01*
G75*
G02*
X57860250Y-146205000I-243750J0D01*
G01*
X56947750Y-146205000D01*
G75*
G02*
X56704000Y-145961250I0J243750D01*
G01*
X56704000Y-145473750D01*
G75*
G02*
X56947750Y-145230000I243750J0D01*
G01*
G37*
%TD.AperFunction*%
%TO.P,C1,1*%
%TO.N,VCAP*%
%TA.AperFunction,SMDPad,CuDef*%
G36*
G01*
X56947750Y-143355000D02*
X57860250Y-143355000D01*
G75*
G02*
X58104000Y-143598750I0J-243750D01*
G01*
X58104000Y-144086250D01*
G75*
G02*
X57860250Y-144330000I-243750J0D01*
G01*
X56947750Y-144330000D01*
G75*
G02*
X56704000Y-144086250I0J243750D01*
G01*
X56704000Y-143598750D01*
G75*
G02*
X56947750Y-143355000I243750J0D01*
G01*
G37*
%TD.AperFunction*%
%TD*%
D18*
%TO.N,GND*%
X57404000Y-123698000D03*
X55626000Y-146558000D03*
X67310000Y-147320000D03*
X69850000Y-124460000D03*
%TO.N,Net-(C2-Pad1)*%
X64185800Y-127279400D03*
%TO.N,+3V3*%
X63500000Y-140716000D03*
X64516000Y-135382000D03*
%TD*%
D19*
%TO.N,GND*%
X60637500Y-139151000D02*
X62017000Y-139151000D01*
X62017000Y-139151000D02*
X62484000Y-138684000D01*
X62484000Y-133682500D02*
X61897500Y-133096000D01*
X62484000Y-138684000D02*
X62484000Y-133682500D01*
X60637500Y-139151000D02*
X58461000Y-139151000D01*
X55372000Y-142240000D02*
X53340000Y-142240000D01*
X58461000Y-139151000D02*
X55372000Y-142240000D01*
X62200000Y-123382500D02*
X62200000Y-124744000D01*
X62200000Y-124744000D02*
X61722000Y-125222000D01*
X61722000Y-125222000D02*
X58928000Y-125222000D01*
X58928000Y-125222000D02*
X57404000Y-123698000D01*
X57404000Y-145717500D02*
X56466500Y-145717500D01*
X56466500Y-145717500D02*
X55626000Y-146558000D01*
X66040000Y-146304000D02*
X66294000Y-146304000D01*
X66294000Y-146304000D02*
X67310000Y-147320000D01*
X66600000Y-130374000D02*
X66600000Y-130250000D01*
X66600000Y-130250000D02*
X69850000Y-127000000D01*
X69850000Y-127000000D02*
X69850000Y-124460000D01*
%TO.N,VCAP*%
X60637500Y-139801000D02*
X58827000Y-139801000D01*
X57404000Y-141224000D02*
X57404000Y-143842500D01*
X58827000Y-139801000D02*
X57404000Y-141224000D01*
X56466500Y-144780000D02*
X57404000Y-143842500D01*
X53340000Y-144780000D02*
X56466500Y-144780000D01*
%TO.N,Net-(C2-Pad1)*%
X64800000Y-123382500D02*
X64800000Y-126665200D01*
X64800000Y-126665200D02*
X64185800Y-127279400D01*
%TO.N,+3V3*%
X61038500Y-146304000D02*
X61038500Y-143764000D01*
X61038500Y-143764000D02*
X61038500Y-142669500D01*
X61375000Y-140451000D02*
X60637500Y-140451000D01*
X61700010Y-140776010D02*
X61375000Y-140451000D01*
X61700010Y-142007990D02*
X61700010Y-140776010D01*
X61038500Y-142669500D02*
X61700010Y-142007990D01*
X61760020Y-140716000D02*
X61700010Y-140776010D01*
X63500000Y-140716000D02*
X61760020Y-140716000D01*
X67310000Y-149860000D02*
X67310000Y-149072600D01*
X67310000Y-149072600D02*
X66040000Y-147802600D01*
X62537100Y-147802600D02*
X61038500Y-146304000D01*
X66040000Y-147802600D02*
X62537100Y-147802600D01*
X64516000Y-134015000D02*
X65435000Y-133096000D01*
X64516000Y-135382000D02*
X64516000Y-134015000D01*
%TO.N,Net-(C4-Pad1)*%
X65269599Y-128004401D02*
X66600000Y-126674000D01*
X60400000Y-126674000D02*
X61730401Y-128004401D01*
X60022500Y-133096000D02*
X63488401Y-129630099D01*
X61730401Y-128004401D02*
X63488401Y-128004401D01*
X63488401Y-128004401D02*
X65269599Y-128004401D01*
X63488401Y-129630099D02*
X63488401Y-128004401D01*
X63488401Y-129630099D02*
X63488401Y-129655401D01*
X63488401Y-129655401D02*
X65532000Y-131699000D01*
X65913000Y-131699000D02*
X67310000Y-133096000D01*
X65532000Y-131699000D02*
X65913000Y-131699000D01*
%TO.N,Net-(D1-Pad2)*%
X62913500Y-143764000D02*
X64516000Y-143764000D01*
%TO.N,PB5*%
X66362500Y-143492500D02*
X66091000Y-143764000D01*
X66362500Y-141101000D02*
X66362500Y-143492500D01*
X73660000Y-149860000D02*
X71628000Y-149860000D01*
X71628000Y-149860000D02*
X70104000Y-148336000D01*
X70104000Y-148336000D02*
X70104000Y-145288000D01*
X68580000Y-143764000D02*
X66091000Y-143764000D01*
X70104000Y-145288000D02*
X68580000Y-143764000D01*
%TO.N,Net-(D2-Pad2)*%
X62913500Y-146304000D02*
X64465000Y-146304000D01*
%TO.N,Net-(J1-Pad6)*%
X60600000Y-122982500D02*
X61000000Y-123382500D01*
X60600000Y-120682500D02*
X60600000Y-122982500D01*
X66400000Y-122982500D02*
X66000000Y-123382500D01*
X66400000Y-120682500D02*
X66400000Y-122982500D01*
X60600000Y-120682500D02*
X62500000Y-120682500D01*
X62500000Y-120682500D02*
X64500000Y-120682500D01*
X64500000Y-120682500D02*
X67000000Y-120682500D01*
%TO.N,PD4*%
X60637500Y-135251000D02*
X59559000Y-135251000D01*
X59559000Y-135251000D02*
X58420000Y-134112000D01*
X58420000Y-134112000D02*
X58420000Y-129032000D01*
X56388000Y-127000000D02*
X53340000Y-127000000D01*
X58420000Y-129032000D02*
X56388000Y-127000000D01*
%TO.N,PD5*%
X59572590Y-135901000D02*
X57912000Y-134240410D01*
X60637500Y-135901000D02*
X59572590Y-135901000D01*
X53340000Y-129540000D02*
X56388000Y-129540000D01*
X57912000Y-131064000D02*
X57912000Y-134240410D01*
X56388000Y-129540000D02*
X57912000Y-131064000D01*
%TO.N,PD6*%
X57461991Y-134426811D02*
X59586180Y-136551000D01*
X57461990Y-133153990D02*
X57461991Y-134426811D01*
X59586180Y-136551000D02*
X60637500Y-136551000D01*
X56388000Y-132080000D02*
X57461990Y-133153990D01*
X53340000Y-132080000D02*
X56388000Y-132080000D01*
%TO.N,NRST*%
X56289850Y-134620000D02*
X53340000Y-134620000D01*
X58870850Y-137201000D02*
X56289850Y-134620000D01*
X60637500Y-137201000D02*
X58870850Y-137201000D01*
%TO.N,PA1*%
X54739010Y-138559010D02*
X53340000Y-137160000D01*
X57479020Y-137851000D02*
X56771010Y-138559010D01*
X60637500Y-137851000D02*
X57479020Y-137851000D01*
X56771010Y-138559010D02*
X54739010Y-138559010D01*
%TO.N,PA2*%
X58095000Y-138501000D02*
X56896000Y-139700000D01*
X60637500Y-138501000D02*
X58095000Y-138501000D01*
X56896000Y-139700000D02*
X53340000Y-139700000D01*
%TO.N,PA3*%
X60637500Y-141101000D02*
X59436000Y-142302500D01*
X54765850Y-149860000D02*
X53340000Y-149860000D01*
X59436000Y-145189850D02*
X54765850Y-149860000D01*
X59436000Y-142302500D02*
X59436000Y-145189850D01*
%TO.N,PD1+SWIM*%
X65299990Y-142261990D02*
X64770000Y-141732000D01*
X65299990Y-144216984D02*
X65299990Y-142261990D01*
X69088000Y-151384000D02*
X69596000Y-150876000D01*
X65379000Y-136551000D02*
X66362500Y-136551000D01*
X64770000Y-137160000D02*
X65379000Y-136551000D01*
X69596000Y-150876000D02*
X69596000Y-148512994D01*
X64770000Y-141732000D02*
X64770000Y-137160000D01*
X66294000Y-151384000D02*
X69088000Y-151384000D01*
X64770000Y-149860000D02*
X66294000Y-151384000D01*
X69596000Y-148512994D02*
X65299990Y-144216984D01*
%TO.N,PD3*%
X66362500Y-135251000D02*
X68457000Y-135251000D01*
X68457000Y-135251000D02*
X69088000Y-134620000D01*
X69088000Y-134620000D02*
X69088000Y-129540000D01*
X71628000Y-127000000D02*
X73660000Y-127000000D01*
X69088000Y-129540000D02*
X71628000Y-127000000D01*
%TO.N,PD2*%
X66362500Y-135901000D02*
X68823000Y-135901000D01*
X68823000Y-135901000D02*
X69596000Y-135128000D01*
X69596000Y-135128000D02*
X69596000Y-131572000D01*
X71628000Y-129540000D02*
X73660000Y-129540000D01*
X69596000Y-131572000D02*
X71628000Y-129540000D01*
%TO.N,PC7*%
X66362500Y-137201000D02*
X68539000Y-137201000D01*
X71120000Y-134620000D02*
X73660000Y-134620000D01*
X68539000Y-137201000D02*
X71120000Y-134620000D01*
%TO.N,PC6*%
X66362500Y-137851000D02*
X70429000Y-137851000D01*
X71120000Y-137160000D02*
X73660000Y-137160000D01*
X70429000Y-137851000D02*
X71120000Y-137160000D01*
%TO.N,PC5*%
X66362500Y-138501000D02*
X69413000Y-138501000D01*
X70612000Y-139700000D02*
X73660000Y-139700000D01*
X69413000Y-138501000D02*
X70612000Y-139700000D01*
%TO.N,PC4*%
X66362500Y-139151000D02*
X68539000Y-139151000D01*
X71628000Y-142240000D02*
X73660000Y-142240000D01*
X68539000Y-139151000D02*
X71628000Y-142240000D01*
%TO.N,PC3*%
X66362500Y-139801000D02*
X68084100Y-139801000D01*
X73063100Y-144780000D02*
X73660000Y-144780000D01*
X68084100Y-139801000D02*
X73063100Y-144780000D01*
%TO.N,PB4*%
X66362500Y-140451000D02*
X67413300Y-140451000D01*
X67413300Y-140451000D02*
X70891400Y-143929100D01*
X70891400Y-143929100D02*
X70891400Y-146558000D01*
X71653400Y-147320000D02*
X73660000Y-147320000D01*
X70891400Y-146558000D02*
X71653400Y-147320000D01*
%TD*%
D20*
%TO.N,GND*%
G36*
X74024545Y-120078909D02*
G01*
X74375208Y-120184780D01*
X74698625Y-120356744D01*
X74982484Y-120588254D01*
X75215965Y-120870486D01*
X75390183Y-121192695D01*
X75498502Y-121542614D01*
X75537465Y-121913322D01*
X75536807Y-121920000D01*
X75540000Y-121952419D01*
X75540001Y-149827711D01*
X75501091Y-150224545D01*
X75395220Y-150575206D01*
X75223257Y-150898623D01*
X74991748Y-151182482D01*
X74709514Y-151415965D01*
X74387304Y-151590184D01*
X74037385Y-151698502D01*
X73642557Y-151740000D01*
X69806801Y-151740000D01*
X70107003Y-151439798D01*
X70136001Y-151416001D01*
X70230974Y-151300276D01*
X70301546Y-151168247D01*
X70345003Y-151024986D01*
X70356000Y-150913333D01*
X70356000Y-150913324D01*
X70359676Y-150876001D01*
X70356000Y-150838678D01*
X70356000Y-149662802D01*
X71064205Y-150371008D01*
X71087999Y-150400001D01*
X71116992Y-150423795D01*
X71116996Y-150423799D01*
X71176595Y-150472710D01*
X71203724Y-150494974D01*
X71335753Y-150565546D01*
X71479014Y-150609003D01*
X71590667Y-150620000D01*
X71590676Y-150620000D01*
X71627999Y-150623676D01*
X71665322Y-150620000D01*
X72171928Y-150620000D01*
X72171928Y-150710000D01*
X72184188Y-150834482D01*
X72220498Y-150954180D01*
X72279463Y-151064494D01*
X72358815Y-151161185D01*
X72455506Y-151240537D01*
X72565820Y-151299502D01*
X72685518Y-151335812D01*
X72810000Y-151348072D01*
X74510000Y-151348072D01*
X74634482Y-151335812D01*
X74754180Y-151299502D01*
X74864494Y-151240537D01*
X74961185Y-151161185D01*
X75040537Y-151064494D01*
X75099502Y-150954180D01*
X75135812Y-150834482D01*
X75148072Y-150710000D01*
X75148072Y-149010000D01*
X75135812Y-148885518D01*
X75099502Y-148765820D01*
X75040537Y-148655506D01*
X74961185Y-148558815D01*
X74864494Y-148479463D01*
X74754180Y-148420498D01*
X74681620Y-148398487D01*
X74813475Y-148266632D01*
X74975990Y-148023411D01*
X75087932Y-147753158D01*
X75145000Y-147466260D01*
X75145000Y-147173740D01*
X75087932Y-146886842D01*
X74975990Y-146616589D01*
X74813475Y-146373368D01*
X74606632Y-146166525D01*
X74432240Y-146050000D01*
X74606632Y-145933475D01*
X74813475Y-145726632D01*
X74975990Y-145483411D01*
X75087932Y-145213158D01*
X75145000Y-144926260D01*
X75145000Y-144633740D01*
X75087932Y-144346842D01*
X74975990Y-144076589D01*
X74813475Y-143833368D01*
X74606632Y-143626525D01*
X74432240Y-143510000D01*
X74606632Y-143393475D01*
X74813475Y-143186632D01*
X74975990Y-142943411D01*
X75087932Y-142673158D01*
X75145000Y-142386260D01*
X75145000Y-142093740D01*
X75087932Y-141806842D01*
X74975990Y-141536589D01*
X74813475Y-141293368D01*
X74606632Y-141086525D01*
X74432240Y-140970000D01*
X74606632Y-140853475D01*
X74813475Y-140646632D01*
X74975990Y-140403411D01*
X75087932Y-140133158D01*
X75145000Y-139846260D01*
X75145000Y-139553740D01*
X75087932Y-139266842D01*
X74975990Y-138996589D01*
X74813475Y-138753368D01*
X74606632Y-138546525D01*
X74432240Y-138430000D01*
X74606632Y-138313475D01*
X74813475Y-138106632D01*
X74975990Y-137863411D01*
X75087932Y-137593158D01*
X75145000Y-137306260D01*
X75145000Y-137013740D01*
X75087932Y-136726842D01*
X74975990Y-136456589D01*
X74813475Y-136213368D01*
X74606632Y-136006525D01*
X74432240Y-135890000D01*
X74606632Y-135773475D01*
X74813475Y-135566632D01*
X74975990Y-135323411D01*
X75087932Y-135053158D01*
X75145000Y-134766260D01*
X75145000Y-134473740D01*
X75087932Y-134186842D01*
X74975990Y-133916589D01*
X74813475Y-133673368D01*
X74606632Y-133466525D01*
X74432240Y-133350000D01*
X74606632Y-133233475D01*
X74813475Y-133026632D01*
X74975990Y-132783411D01*
X75087932Y-132513158D01*
X75145000Y-132226260D01*
X75145000Y-131933740D01*
X75087932Y-131646842D01*
X74975990Y-131376589D01*
X74813475Y-131133368D01*
X74606632Y-130926525D01*
X74432240Y-130810000D01*
X74606632Y-130693475D01*
X74813475Y-130486632D01*
X74975990Y-130243411D01*
X75087932Y-129973158D01*
X75145000Y-129686260D01*
X75145000Y-129393740D01*
X75087932Y-129106842D01*
X74975990Y-128836589D01*
X74813475Y-128593368D01*
X74606632Y-128386525D01*
X74432240Y-128270000D01*
X74606632Y-128153475D01*
X74813475Y-127946632D01*
X74975990Y-127703411D01*
X75087932Y-127433158D01*
X75145000Y-127146260D01*
X75145000Y-126853740D01*
X75087932Y-126566842D01*
X74975990Y-126296589D01*
X74813475Y-126053368D01*
X74606632Y-125846525D01*
X74363411Y-125684010D01*
X74093158Y-125572068D01*
X73806260Y-125515000D01*
X73513740Y-125515000D01*
X73226842Y-125572068D01*
X72956589Y-125684010D01*
X72713368Y-125846525D01*
X72506525Y-126053368D01*
X72381822Y-126240000D01*
X71665322Y-126240000D01*
X71627999Y-126236324D01*
X71590676Y-126240000D01*
X71590667Y-126240000D01*
X71479014Y-126250997D01*
X71335753Y-126294454D01*
X71203724Y-126365026D01*
X71203722Y-126365027D01*
X71203723Y-126365027D01*
X71116996Y-126436201D01*
X71116992Y-126436205D01*
X71087999Y-126459999D01*
X71064205Y-126488992D01*
X68576998Y-128976201D01*
X68548000Y-128999999D01*
X68524202Y-129028997D01*
X68524201Y-129028998D01*
X68453026Y-129115724D01*
X68382454Y-129247754D01*
X68338998Y-129391015D01*
X68324324Y-129540000D01*
X68328001Y-129577332D01*
X68328000Y-132226621D01*
X68286958Y-132149836D01*
X68177292Y-132016208D01*
X68043664Y-131906542D01*
X67891209Y-131825053D01*
X67725785Y-131774872D01*
X67553750Y-131757928D01*
X67066250Y-131757928D01*
X67048480Y-131759678D01*
X66727002Y-131438201D01*
X66727002Y-131400252D01*
X66885750Y-131559000D01*
X67500000Y-131562072D01*
X67624482Y-131549812D01*
X67744180Y-131513502D01*
X67854494Y-131454537D01*
X67951185Y-131375185D01*
X68030537Y-131278494D01*
X68089502Y-131168180D01*
X68125812Y-131048482D01*
X68138072Y-130924000D01*
X68135000Y-130659750D01*
X67976250Y-130501000D01*
X66727000Y-130501000D01*
X66727000Y-130521000D01*
X66473000Y-130521000D01*
X66473000Y-130501000D01*
X66453000Y-130501000D01*
X66453000Y-130247000D01*
X66473000Y-130247000D01*
X66473000Y-129347750D01*
X66727000Y-129347750D01*
X66727000Y-130247000D01*
X67976250Y-130247000D01*
X68135000Y-130088250D01*
X68138072Y-129824000D01*
X68125812Y-129699518D01*
X68089502Y-129579820D01*
X68030537Y-129469506D01*
X67951185Y-129372815D01*
X67854494Y-129293463D01*
X67744180Y-129234498D01*
X67624482Y-129198188D01*
X67500000Y-129185928D01*
X66885750Y-129189000D01*
X66727000Y-129347750D01*
X66473000Y-129347750D01*
X66314250Y-129189000D01*
X65700000Y-129185928D01*
X65575518Y-129198188D01*
X65455820Y-129234498D01*
X65345506Y-129293463D01*
X65248815Y-129372815D01*
X65169463Y-129469506D01*
X65110498Y-129579820D01*
X65074188Y-129699518D01*
X65061928Y-129824000D01*
X65065000Y-130088250D01*
X65223748Y-130246998D01*
X65154800Y-130246998D01*
X64248401Y-129340600D01*
X64248401Y-128764401D01*
X65232277Y-128764401D01*
X65269599Y-128768077D01*
X65306921Y-128764401D01*
X65306932Y-128764401D01*
X65418585Y-128753404D01*
X65561846Y-128709947D01*
X65693875Y-128639375D01*
X65809600Y-128544402D01*
X65833403Y-128515398D01*
X66486730Y-127862072D01*
X67500000Y-127862072D01*
X67624482Y-127849812D01*
X67744180Y-127813502D01*
X67854494Y-127754537D01*
X67951185Y-127675185D01*
X68030537Y-127578494D01*
X68089502Y-127468180D01*
X68125812Y-127348482D01*
X68138072Y-127224000D01*
X68138072Y-126124000D01*
X68125812Y-125999518D01*
X68089502Y-125879820D01*
X68030537Y-125769506D01*
X67951185Y-125672815D01*
X67854494Y-125593463D01*
X67744180Y-125534498D01*
X67624482Y-125498188D01*
X67500000Y-125485928D01*
X65700000Y-125485928D01*
X65575518Y-125498188D01*
X65560000Y-125502895D01*
X65560000Y-124672299D01*
X65603303Y-124690236D01*
X65866052Y-124742500D01*
X66133948Y-124742500D01*
X66396697Y-124690236D01*
X66644201Y-124587716D01*
X66866949Y-124438881D01*
X67056381Y-124249449D01*
X67205216Y-124026701D01*
X67307736Y-123779197D01*
X67360000Y-123516448D01*
X67360000Y-123248552D01*
X67307736Y-122985803D01*
X67205216Y-122738299D01*
X67160000Y-122670628D01*
X67160000Y-122257716D01*
X67242102Y-122249630D01*
X67474901Y-122179011D01*
X67689449Y-122064333D01*
X67877502Y-121910002D01*
X68031833Y-121721949D01*
X68146511Y-121507401D01*
X68217130Y-121274601D01*
X68235000Y-121093164D01*
X68235000Y-120271835D01*
X68217130Y-120090398D01*
X68201842Y-120040000D01*
X73627721Y-120040000D01*
X74024545Y-120078909D01*
G37*
X74024545Y-120078909D02*
X74375208Y-120184780D01*
X74698625Y-120356744D01*
X74982484Y-120588254D01*
X75215965Y-120870486D01*
X75390183Y-121192695D01*
X75498502Y-121542614D01*
X75537465Y-121913322D01*
X75536807Y-121920000D01*
X75540000Y-121952419D01*
X75540001Y-149827711D01*
X75501091Y-150224545D01*
X75395220Y-150575206D01*
X75223257Y-150898623D01*
X74991748Y-151182482D01*
X74709514Y-151415965D01*
X74387304Y-151590184D01*
X74037385Y-151698502D01*
X73642557Y-151740000D01*
X69806801Y-151740000D01*
X70107003Y-151439798D01*
X70136001Y-151416001D01*
X70230974Y-151300276D01*
X70301546Y-151168247D01*
X70345003Y-151024986D01*
X70356000Y-150913333D01*
X70356000Y-150913324D01*
X70359676Y-150876001D01*
X70356000Y-150838678D01*
X70356000Y-149662802D01*
X71064205Y-150371008D01*
X71087999Y-150400001D01*
X71116992Y-150423795D01*
X71116996Y-150423799D01*
X71176595Y-150472710D01*
X71203724Y-150494974D01*
X71335753Y-150565546D01*
X71479014Y-150609003D01*
X71590667Y-150620000D01*
X71590676Y-150620000D01*
X71627999Y-150623676D01*
X71665322Y-150620000D01*
X72171928Y-150620000D01*
X72171928Y-150710000D01*
X72184188Y-150834482D01*
X72220498Y-150954180D01*
X72279463Y-151064494D01*
X72358815Y-151161185D01*
X72455506Y-151240537D01*
X72565820Y-151299502D01*
X72685518Y-151335812D01*
X72810000Y-151348072D01*
X74510000Y-151348072D01*
X74634482Y-151335812D01*
X74754180Y-151299502D01*
X74864494Y-151240537D01*
X74961185Y-151161185D01*
X75040537Y-151064494D01*
X75099502Y-150954180D01*
X75135812Y-150834482D01*
X75148072Y-150710000D01*
X75148072Y-149010000D01*
X75135812Y-148885518D01*
X75099502Y-148765820D01*
X75040537Y-148655506D01*
X74961185Y-148558815D01*
X74864494Y-148479463D01*
X74754180Y-148420498D01*
X74681620Y-148398487D01*
X74813475Y-148266632D01*
X74975990Y-148023411D01*
X75087932Y-147753158D01*
X75145000Y-147466260D01*
X75145000Y-147173740D01*
X75087932Y-146886842D01*
X74975990Y-146616589D01*
X74813475Y-146373368D01*
X74606632Y-146166525D01*
X74432240Y-146050000D01*
X74606632Y-145933475D01*
X74813475Y-145726632D01*
X74975990Y-145483411D01*
X75087932Y-145213158D01*
X75145000Y-144926260D01*
X75145000Y-144633740D01*
X75087932Y-144346842D01*
X74975990Y-144076589D01*
X74813475Y-143833368D01*
X74606632Y-143626525D01*
X74432240Y-143510000D01*
X74606632Y-143393475D01*
X74813475Y-143186632D01*
X74975990Y-142943411D01*
X75087932Y-142673158D01*
X75145000Y-142386260D01*
X75145000Y-142093740D01*
X75087932Y-141806842D01*
X74975990Y-141536589D01*
X74813475Y-141293368D01*
X74606632Y-141086525D01*
X74432240Y-140970000D01*
X74606632Y-140853475D01*
X74813475Y-140646632D01*
X74975990Y-140403411D01*
X75087932Y-140133158D01*
X75145000Y-139846260D01*
X75145000Y-139553740D01*
X75087932Y-139266842D01*
X74975990Y-138996589D01*
X74813475Y-138753368D01*
X74606632Y-138546525D01*
X74432240Y-138430000D01*
X74606632Y-138313475D01*
X74813475Y-138106632D01*
X74975990Y-137863411D01*
X75087932Y-137593158D01*
X75145000Y-137306260D01*
X75145000Y-137013740D01*
X75087932Y-136726842D01*
X74975990Y-136456589D01*
X74813475Y-136213368D01*
X74606632Y-136006525D01*
X74432240Y-135890000D01*
X74606632Y-135773475D01*
X74813475Y-135566632D01*
X74975990Y-135323411D01*
X75087932Y-135053158D01*
X75145000Y-134766260D01*
X75145000Y-134473740D01*
X75087932Y-134186842D01*
X74975990Y-133916589D01*
X74813475Y-133673368D01*
X74606632Y-133466525D01*
X74432240Y-133350000D01*
X74606632Y-133233475D01*
X74813475Y-133026632D01*
X74975990Y-132783411D01*
X75087932Y-132513158D01*
X75145000Y-132226260D01*
X75145000Y-131933740D01*
X75087932Y-131646842D01*
X74975990Y-131376589D01*
X74813475Y-131133368D01*
X74606632Y-130926525D01*
X74432240Y-130810000D01*
X74606632Y-130693475D01*
X74813475Y-130486632D01*
X74975990Y-130243411D01*
X75087932Y-129973158D01*
X75145000Y-129686260D01*
X75145000Y-129393740D01*
X75087932Y-129106842D01*
X74975990Y-128836589D01*
X74813475Y-128593368D01*
X74606632Y-128386525D01*
X74432240Y-128270000D01*
X74606632Y-128153475D01*
X74813475Y-127946632D01*
X74975990Y-127703411D01*
X75087932Y-127433158D01*
X75145000Y-127146260D01*
X75145000Y-126853740D01*
X75087932Y-126566842D01*
X74975990Y-126296589D01*
X74813475Y-126053368D01*
X74606632Y-125846525D01*
X74363411Y-125684010D01*
X74093158Y-125572068D01*
X73806260Y-125515000D01*
X73513740Y-125515000D01*
X73226842Y-125572068D01*
X72956589Y-125684010D01*
X72713368Y-125846525D01*
X72506525Y-126053368D01*
X72381822Y-126240000D01*
X71665322Y-126240000D01*
X71627999Y-126236324D01*
X71590676Y-126240000D01*
X71590667Y-126240000D01*
X71479014Y-126250997D01*
X71335753Y-126294454D01*
X71203724Y-126365026D01*
X71203722Y-126365027D01*
X71203723Y-126365027D01*
X71116996Y-126436201D01*
X71116992Y-126436205D01*
X71087999Y-126459999D01*
X71064205Y-126488992D01*
X68576998Y-128976201D01*
X68548000Y-128999999D01*
X68524202Y-129028997D01*
X68524201Y-129028998D01*
X68453026Y-129115724D01*
X68382454Y-129247754D01*
X68338998Y-129391015D01*
X68324324Y-129540000D01*
X68328001Y-129577332D01*
X68328000Y-132226621D01*
X68286958Y-132149836D01*
X68177292Y-132016208D01*
X68043664Y-131906542D01*
X67891209Y-131825053D01*
X67725785Y-131774872D01*
X67553750Y-131757928D01*
X67066250Y-131757928D01*
X67048480Y-131759678D01*
X66727002Y-131438201D01*
X66727002Y-131400252D01*
X66885750Y-131559000D01*
X67500000Y-131562072D01*
X67624482Y-131549812D01*
X67744180Y-131513502D01*
X67854494Y-131454537D01*
X67951185Y-131375185D01*
X68030537Y-131278494D01*
X68089502Y-131168180D01*
X68125812Y-131048482D01*
X68138072Y-130924000D01*
X68135000Y-130659750D01*
X67976250Y-130501000D01*
X66727000Y-130501000D01*
X66727000Y-130521000D01*
X66473000Y-130521000D01*
X66473000Y-130501000D01*
X66453000Y-130501000D01*
X66453000Y-130247000D01*
X66473000Y-130247000D01*
X66473000Y-129347750D01*
X66727000Y-129347750D01*
X66727000Y-130247000D01*
X67976250Y-130247000D01*
X68135000Y-130088250D01*
X68138072Y-129824000D01*
X68125812Y-129699518D01*
X68089502Y-129579820D01*
X68030537Y-129469506D01*
X67951185Y-129372815D01*
X67854494Y-129293463D01*
X67744180Y-129234498D01*
X67624482Y-129198188D01*
X67500000Y-129185928D01*
X66885750Y-129189000D01*
X66727000Y-129347750D01*
X66473000Y-129347750D01*
X66314250Y-129189000D01*
X65700000Y-129185928D01*
X65575518Y-129198188D01*
X65455820Y-129234498D01*
X65345506Y-129293463D01*
X65248815Y-129372815D01*
X65169463Y-129469506D01*
X65110498Y-129579820D01*
X65074188Y-129699518D01*
X65061928Y-129824000D01*
X65065000Y-130088250D01*
X65223748Y-130246998D01*
X65154800Y-130246998D01*
X64248401Y-129340600D01*
X64248401Y-128764401D01*
X65232277Y-128764401D01*
X65269599Y-128768077D01*
X65306921Y-128764401D01*
X65306932Y-128764401D01*
X65418585Y-128753404D01*
X65561846Y-128709947D01*
X65693875Y-128639375D01*
X65809600Y-128544402D01*
X65833403Y-128515398D01*
X66486730Y-127862072D01*
X67500000Y-127862072D01*
X67624482Y-127849812D01*
X67744180Y-127813502D01*
X67854494Y-127754537D01*
X67951185Y-127675185D01*
X68030537Y-127578494D01*
X68089502Y-127468180D01*
X68125812Y-127348482D01*
X68138072Y-127224000D01*
X68138072Y-126124000D01*
X68125812Y-125999518D01*
X68089502Y-125879820D01*
X68030537Y-125769506D01*
X67951185Y-125672815D01*
X67854494Y-125593463D01*
X67744180Y-125534498D01*
X67624482Y-125498188D01*
X67500000Y-125485928D01*
X65700000Y-125485928D01*
X65575518Y-125498188D01*
X65560000Y-125502895D01*
X65560000Y-124672299D01*
X65603303Y-124690236D01*
X65866052Y-124742500D01*
X66133948Y-124742500D01*
X66396697Y-124690236D01*
X66644201Y-124587716D01*
X66866949Y-124438881D01*
X67056381Y-124249449D01*
X67205216Y-124026701D01*
X67307736Y-123779197D01*
X67360000Y-123516448D01*
X67360000Y-123248552D01*
X67307736Y-122985803D01*
X67205216Y-122738299D01*
X67160000Y-122670628D01*
X67160000Y-122257716D01*
X67242102Y-122249630D01*
X67474901Y-122179011D01*
X67689449Y-122064333D01*
X67877502Y-121910002D01*
X68031833Y-121721949D01*
X68146511Y-121507401D01*
X68217130Y-121274601D01*
X68235000Y-121093164D01*
X68235000Y-120271835D01*
X68217130Y-120090398D01*
X68201842Y-120040000D01*
X73627721Y-120040000D01*
X74024545Y-120078909D01*
G36*
X58782870Y-120090398D02*
G01*
X58765000Y-120271835D01*
X58765000Y-121093164D01*
X58782870Y-121274601D01*
X58853489Y-121507400D01*
X58968167Y-121721948D01*
X59122498Y-121910002D01*
X59310551Y-122064333D01*
X59525099Y-122179011D01*
X59757898Y-122249630D01*
X59840001Y-122257716D01*
X59840001Y-122670627D01*
X59794784Y-122738299D01*
X59692264Y-122985803D01*
X59640000Y-123248552D01*
X59640000Y-123516448D01*
X59692264Y-123779197D01*
X59794784Y-124026701D01*
X59943619Y-124249449D01*
X60133051Y-124438881D01*
X60355799Y-124587716D01*
X60603303Y-124690236D01*
X60866052Y-124742500D01*
X61133948Y-124742500D01*
X61396697Y-124690236D01*
X61644201Y-124587716D01*
X61645390Y-124586921D01*
X61746424Y-124643021D01*
X61865526Y-124681241D01*
X61968250Y-124692500D01*
X62127000Y-124533750D01*
X62127000Y-124421178D01*
X62198815Y-124508685D01*
X62295506Y-124588037D01*
X62363782Y-124624532D01*
X62431750Y-124692500D01*
X62522880Y-124682512D01*
X62525518Y-124683312D01*
X62650000Y-124695572D01*
X63050000Y-124695572D01*
X63174482Y-124683312D01*
X63175000Y-124683155D01*
X63175518Y-124683312D01*
X63300000Y-124695572D01*
X63700000Y-124695572D01*
X63824482Y-124683312D01*
X63825000Y-124683155D01*
X63825518Y-124683312D01*
X63950000Y-124695572D01*
X64040000Y-124695572D01*
X64040001Y-126253124D01*
X63883902Y-126284174D01*
X63695544Y-126362195D01*
X63526026Y-126475463D01*
X63381863Y-126619626D01*
X63268595Y-126789144D01*
X63190574Y-126977502D01*
X63150800Y-127177461D01*
X63150800Y-127244401D01*
X62045203Y-127244401D01*
X61938072Y-127137270D01*
X61938072Y-126124000D01*
X61925812Y-125999518D01*
X61889502Y-125879820D01*
X61830537Y-125769506D01*
X61751185Y-125672815D01*
X61654494Y-125593463D01*
X61544180Y-125534498D01*
X61424482Y-125498188D01*
X61300000Y-125485928D01*
X59500000Y-125485928D01*
X59375518Y-125498188D01*
X59255820Y-125534498D01*
X59145506Y-125593463D01*
X59048815Y-125672815D01*
X58969463Y-125769506D01*
X58910498Y-125879820D01*
X58874188Y-125999518D01*
X58861928Y-126124000D01*
X58861928Y-127224000D01*
X58874188Y-127348482D01*
X58910498Y-127468180D01*
X58969463Y-127578494D01*
X59048815Y-127675185D01*
X59145506Y-127754537D01*
X59255820Y-127813502D01*
X59375518Y-127849812D01*
X59500000Y-127862072D01*
X60513271Y-127862072D01*
X61166602Y-128515404D01*
X61190400Y-128544402D01*
X61219398Y-128568200D01*
X61306124Y-128639375D01*
X61438154Y-128709947D01*
X61581415Y-128753404D01*
X61693068Y-128764401D01*
X61693077Y-128764401D01*
X61730400Y-128768077D01*
X61767723Y-128764401D01*
X62728402Y-128764401D01*
X62728401Y-129315297D01*
X61796700Y-130246998D01*
X61776252Y-130246998D01*
X61935000Y-130088250D01*
X61938072Y-129824000D01*
X61925812Y-129699518D01*
X61889502Y-129579820D01*
X61830537Y-129469506D01*
X61751185Y-129372815D01*
X61654494Y-129293463D01*
X61544180Y-129234498D01*
X61424482Y-129198188D01*
X61300000Y-129185928D01*
X60685750Y-129189000D01*
X60527000Y-129347750D01*
X60527000Y-130247000D01*
X60547000Y-130247000D01*
X60547000Y-130501000D01*
X60527000Y-130501000D01*
X60527000Y-131400250D01*
X60585224Y-131458474D01*
X60284021Y-131759678D01*
X60266250Y-131757928D01*
X59778750Y-131757928D01*
X59606715Y-131774872D01*
X59441291Y-131825053D01*
X59288836Y-131906542D01*
X59180000Y-131995862D01*
X59180000Y-131472975D01*
X59255820Y-131513502D01*
X59375518Y-131549812D01*
X59500000Y-131562072D01*
X60114250Y-131559000D01*
X60273000Y-131400250D01*
X60273000Y-130501000D01*
X60253000Y-130501000D01*
X60253000Y-130247000D01*
X60273000Y-130247000D01*
X60273000Y-129347750D01*
X60114250Y-129189000D01*
X59500000Y-129185928D01*
X59375518Y-129198188D01*
X59255820Y-129234498D01*
X59180000Y-129275025D01*
X59180000Y-129069323D01*
X59183676Y-129032000D01*
X59180000Y-128994677D01*
X59180000Y-128994667D01*
X59169003Y-128883014D01*
X59125546Y-128739753D01*
X59071892Y-128639375D01*
X59054974Y-128607723D01*
X58983799Y-128520997D01*
X58960001Y-128491999D01*
X58931003Y-128468201D01*
X56951804Y-126489003D01*
X56928001Y-126459999D01*
X56812276Y-126365026D01*
X56680247Y-126294454D01*
X56536986Y-126250997D01*
X56425333Y-126240000D01*
X56425322Y-126240000D01*
X56388000Y-126236324D01*
X56350678Y-126240000D01*
X54618178Y-126240000D01*
X54493475Y-126053368D01*
X54286632Y-125846525D01*
X54043411Y-125684010D01*
X53773158Y-125572068D01*
X53486260Y-125515000D01*
X53193740Y-125515000D01*
X52906842Y-125572068D01*
X52636589Y-125684010D01*
X52393368Y-125846525D01*
X52186525Y-126053368D01*
X52024010Y-126296589D01*
X51912068Y-126566842D01*
X51855000Y-126853740D01*
X51855000Y-127146260D01*
X51912068Y-127433158D01*
X52024010Y-127703411D01*
X52186525Y-127946632D01*
X52393368Y-128153475D01*
X52567760Y-128270000D01*
X52393368Y-128386525D01*
X52186525Y-128593368D01*
X52024010Y-128836589D01*
X51912068Y-129106842D01*
X51855000Y-129393740D01*
X51855000Y-129686260D01*
X51912068Y-129973158D01*
X52024010Y-130243411D01*
X52186525Y-130486632D01*
X52393368Y-130693475D01*
X52567760Y-130810000D01*
X52393368Y-130926525D01*
X52186525Y-131133368D01*
X52024010Y-131376589D01*
X51912068Y-131646842D01*
X51855000Y-131933740D01*
X51855000Y-132226260D01*
X51912068Y-132513158D01*
X52024010Y-132783411D01*
X52186525Y-133026632D01*
X52393368Y-133233475D01*
X52567760Y-133350000D01*
X52393368Y-133466525D01*
X52186525Y-133673368D01*
X52024010Y-133916589D01*
X51912068Y-134186842D01*
X51855000Y-134473740D01*
X51855000Y-134766260D01*
X51912068Y-135053158D01*
X52024010Y-135323411D01*
X52186525Y-135566632D01*
X52393368Y-135773475D01*
X52567760Y-135890000D01*
X52393368Y-136006525D01*
X52186525Y-136213368D01*
X52024010Y-136456589D01*
X51912068Y-136726842D01*
X51855000Y-137013740D01*
X51855000Y-137306260D01*
X51912068Y-137593158D01*
X52024010Y-137863411D01*
X52186525Y-138106632D01*
X52393368Y-138313475D01*
X52567760Y-138430000D01*
X52393368Y-138546525D01*
X52186525Y-138753368D01*
X52024010Y-138996589D01*
X51912068Y-139266842D01*
X51855000Y-139553740D01*
X51855000Y-139846260D01*
X51912068Y-140133158D01*
X52024010Y-140403411D01*
X52186525Y-140646632D01*
X52393368Y-140853475D01*
X52575534Y-140975195D01*
X52458645Y-141044822D01*
X52242412Y-141239731D01*
X52068359Y-141473080D01*
X51943175Y-141735901D01*
X51898524Y-141883110D01*
X52019845Y-142113000D01*
X53213000Y-142113000D01*
X53213000Y-142093000D01*
X53467000Y-142093000D01*
X53467000Y-142113000D01*
X54660155Y-142113000D01*
X54781476Y-141883110D01*
X54736825Y-141735901D01*
X54611641Y-141473080D01*
X54437588Y-141239731D01*
X54221355Y-141044822D01*
X54104466Y-140975195D01*
X54286632Y-140853475D01*
X54493475Y-140646632D01*
X54618178Y-140460000D01*
X56858678Y-140460000D01*
X56896000Y-140463676D01*
X56933322Y-140460000D01*
X56933333Y-140460000D01*
X57044986Y-140449003D01*
X57129977Y-140423222D01*
X56893003Y-140660196D01*
X56863999Y-140683999D01*
X56815377Y-140743246D01*
X56769026Y-140799724D01*
X56717649Y-140895843D01*
X56698454Y-140931754D01*
X56654997Y-141075015D01*
X56644000Y-141186668D01*
X56644000Y-141186678D01*
X56640324Y-141224000D01*
X56644000Y-141261323D01*
X56644001Y-142773827D01*
X56610291Y-142784053D01*
X56457836Y-142865542D01*
X56324208Y-142975208D01*
X56214542Y-143108836D01*
X56133053Y-143261291D01*
X56082872Y-143426715D01*
X56065928Y-143598750D01*
X56065928Y-144020000D01*
X54618178Y-144020000D01*
X54493475Y-143833368D01*
X54286632Y-143626525D01*
X54104466Y-143504805D01*
X54221355Y-143435178D01*
X54437588Y-143240269D01*
X54611641Y-143006920D01*
X54736825Y-142744099D01*
X54781476Y-142596890D01*
X54660155Y-142367000D01*
X53467000Y-142367000D01*
X53467000Y-142387000D01*
X53213000Y-142387000D01*
X53213000Y-142367000D01*
X52019845Y-142367000D01*
X51898524Y-142596890D01*
X51943175Y-142744099D01*
X52068359Y-143006920D01*
X52242412Y-143240269D01*
X52458645Y-143435178D01*
X52575534Y-143504805D01*
X52393368Y-143626525D01*
X52186525Y-143833368D01*
X52024010Y-144076589D01*
X51912068Y-144346842D01*
X51855000Y-144633740D01*
X51855000Y-144926260D01*
X51912068Y-145213158D01*
X52024010Y-145483411D01*
X52186525Y-145726632D01*
X52393368Y-145933475D01*
X52567760Y-146050000D01*
X52393368Y-146166525D01*
X52186525Y-146373368D01*
X52024010Y-146616589D01*
X51912068Y-146886842D01*
X51855000Y-147173740D01*
X51855000Y-147466260D01*
X51912068Y-147753158D01*
X52024010Y-148023411D01*
X52186525Y-148266632D01*
X52318380Y-148398487D01*
X52245820Y-148420498D01*
X52135506Y-148479463D01*
X52038815Y-148558815D01*
X51959463Y-148655506D01*
X51900498Y-148765820D01*
X51864188Y-148885518D01*
X51851928Y-149010000D01*
X51851928Y-150710000D01*
X51864188Y-150834482D01*
X51900498Y-150954180D01*
X51959463Y-151064494D01*
X52038815Y-151161185D01*
X52135506Y-151240537D01*
X52245820Y-151299502D01*
X52365518Y-151335812D01*
X52490000Y-151348072D01*
X54190000Y-151348072D01*
X54314482Y-151335812D01*
X54434180Y-151299502D01*
X54544494Y-151240537D01*
X54641185Y-151161185D01*
X54720537Y-151064494D01*
X54779502Y-150954180D01*
X54815812Y-150834482D01*
X54828072Y-150710000D01*
X54828072Y-150617549D01*
X54914836Y-150609003D01*
X55058097Y-150565546D01*
X55190126Y-150494974D01*
X55305851Y-150400001D01*
X55329654Y-150370997D01*
X59919486Y-145781167D01*
X59912928Y-145847750D01*
X59912928Y-146760250D01*
X59929872Y-146932285D01*
X59980053Y-147097709D01*
X60061542Y-147250164D01*
X60171208Y-147383792D01*
X60304836Y-147493458D01*
X60457291Y-147574947D01*
X60622715Y-147625128D01*
X60794750Y-147642072D01*
X61282250Y-147642072D01*
X61300020Y-147640322D01*
X61973305Y-148313608D01*
X61997099Y-148342601D01*
X62026092Y-148366395D01*
X62026096Y-148366399D01*
X62089611Y-148418524D01*
X62102998Y-148429510D01*
X62102998Y-148539844D01*
X61873110Y-148418524D01*
X61725901Y-148463175D01*
X61463080Y-148588359D01*
X61229731Y-148762412D01*
X61034822Y-148978645D01*
X60965195Y-149095534D01*
X60843475Y-148913368D01*
X60636632Y-148706525D01*
X60393411Y-148544010D01*
X60123158Y-148432068D01*
X59836260Y-148375000D01*
X59543740Y-148375000D01*
X59256842Y-148432068D01*
X58986589Y-148544010D01*
X58743368Y-148706525D01*
X58536525Y-148913368D01*
X58374010Y-149156589D01*
X58262068Y-149426842D01*
X58205000Y-149713740D01*
X58205000Y-150006260D01*
X58262068Y-150293158D01*
X58374010Y-150563411D01*
X58536525Y-150806632D01*
X58743368Y-151013475D01*
X58986589Y-151175990D01*
X59256842Y-151287932D01*
X59543740Y-151345000D01*
X59836260Y-151345000D01*
X60123158Y-151287932D01*
X60393411Y-151175990D01*
X60636632Y-151013475D01*
X60843475Y-150806632D01*
X60965195Y-150624466D01*
X61034822Y-150741355D01*
X61229731Y-150957588D01*
X61463080Y-151131641D01*
X61725901Y-151256825D01*
X61873110Y-151301476D01*
X62103000Y-151180155D01*
X62103000Y-149987000D01*
X62083000Y-149987000D01*
X62083000Y-149733000D01*
X62103000Y-149733000D01*
X62103000Y-149713000D01*
X62357000Y-149713000D01*
X62357000Y-149733000D01*
X62377000Y-149733000D01*
X62377000Y-149987000D01*
X62357000Y-149987000D01*
X62357000Y-151180155D01*
X62586890Y-151301476D01*
X62734099Y-151256825D01*
X62996920Y-151131641D01*
X63230269Y-150957588D01*
X63425178Y-150741355D01*
X63494805Y-150624466D01*
X63616525Y-150806632D01*
X63823368Y-151013475D01*
X64066589Y-151175990D01*
X64336842Y-151287932D01*
X64623740Y-151345000D01*
X64916260Y-151345000D01*
X65136407Y-151301210D01*
X65575197Y-151740000D01*
X53372279Y-151740000D01*
X52975455Y-151701091D01*
X52624794Y-151595220D01*
X52301377Y-151423257D01*
X52017518Y-151191748D01*
X51784035Y-150909514D01*
X51609816Y-150587304D01*
X51501498Y-150237385D01*
X51460000Y-149842557D01*
X51460000Y-121952419D01*
X51463193Y-121920000D01*
X51463179Y-121919857D01*
X51498909Y-121555455D01*
X51604780Y-121204792D01*
X51776744Y-120881375D01*
X52008254Y-120597516D01*
X52290486Y-120364035D01*
X52612695Y-120189817D01*
X52962614Y-120081498D01*
X53357443Y-120040000D01*
X58798158Y-120040000D01*
X58782870Y-120090398D01*
G37*
X58782870Y-120090398D02*
X58765000Y-120271835D01*
X58765000Y-121093164D01*
X58782870Y-121274601D01*
X58853489Y-121507400D01*
X58968167Y-121721948D01*
X59122498Y-121910002D01*
X59310551Y-122064333D01*
X59525099Y-122179011D01*
X59757898Y-122249630D01*
X59840001Y-122257716D01*
X59840001Y-122670627D01*
X59794784Y-122738299D01*
X59692264Y-122985803D01*
X59640000Y-123248552D01*
X59640000Y-123516448D01*
X59692264Y-123779197D01*
X59794784Y-124026701D01*
X59943619Y-124249449D01*
X60133051Y-124438881D01*
X60355799Y-124587716D01*
X60603303Y-124690236D01*
X60866052Y-124742500D01*
X61133948Y-124742500D01*
X61396697Y-124690236D01*
X61644201Y-124587716D01*
X61645390Y-124586921D01*
X61746424Y-124643021D01*
X61865526Y-124681241D01*
X61968250Y-124692500D01*
X62127000Y-124533750D01*
X62127000Y-124421178D01*
X62198815Y-124508685D01*
X62295506Y-124588037D01*
X62363782Y-124624532D01*
X62431750Y-124692500D01*
X62522880Y-124682512D01*
X62525518Y-124683312D01*
X62650000Y-124695572D01*
X63050000Y-124695572D01*
X63174482Y-124683312D01*
X63175000Y-124683155D01*
X63175518Y-124683312D01*
X63300000Y-124695572D01*
X63700000Y-124695572D01*
X63824482Y-124683312D01*
X63825000Y-124683155D01*
X63825518Y-124683312D01*
X63950000Y-124695572D01*
X64040000Y-124695572D01*
X64040001Y-126253124D01*
X63883902Y-126284174D01*
X63695544Y-126362195D01*
X63526026Y-126475463D01*
X63381863Y-126619626D01*
X63268595Y-126789144D01*
X63190574Y-126977502D01*
X63150800Y-127177461D01*
X63150800Y-127244401D01*
X62045203Y-127244401D01*
X61938072Y-127137270D01*
X61938072Y-126124000D01*
X61925812Y-125999518D01*
X61889502Y-125879820D01*
X61830537Y-125769506D01*
X61751185Y-125672815D01*
X61654494Y-125593463D01*
X61544180Y-125534498D01*
X61424482Y-125498188D01*
X61300000Y-125485928D01*
X59500000Y-125485928D01*
X59375518Y-125498188D01*
X59255820Y-125534498D01*
X59145506Y-125593463D01*
X59048815Y-125672815D01*
X58969463Y-125769506D01*
X58910498Y-125879820D01*
X58874188Y-125999518D01*
X58861928Y-126124000D01*
X58861928Y-127224000D01*
X58874188Y-127348482D01*
X58910498Y-127468180D01*
X58969463Y-127578494D01*
X59048815Y-127675185D01*
X59145506Y-127754537D01*
X59255820Y-127813502D01*
X59375518Y-127849812D01*
X59500000Y-127862072D01*
X60513271Y-127862072D01*
X61166602Y-128515404D01*
X61190400Y-128544402D01*
X61219398Y-128568200D01*
X61306124Y-128639375D01*
X61438154Y-128709947D01*
X61581415Y-128753404D01*
X61693068Y-128764401D01*
X61693077Y-128764401D01*
X61730400Y-128768077D01*
X61767723Y-128764401D01*
X62728402Y-128764401D01*
X62728401Y-129315297D01*
X61796700Y-130246998D01*
X61776252Y-130246998D01*
X61935000Y-130088250D01*
X61938072Y-129824000D01*
X61925812Y-129699518D01*
X61889502Y-129579820D01*
X61830537Y-129469506D01*
X61751185Y-129372815D01*
X61654494Y-129293463D01*
X61544180Y-129234498D01*
X61424482Y-129198188D01*
X61300000Y-129185928D01*
X60685750Y-129189000D01*
X60527000Y-129347750D01*
X60527000Y-130247000D01*
X60547000Y-130247000D01*
X60547000Y-130501000D01*
X60527000Y-130501000D01*
X60527000Y-131400250D01*
X60585224Y-131458474D01*
X60284021Y-131759678D01*
X60266250Y-131757928D01*
X59778750Y-131757928D01*
X59606715Y-131774872D01*
X59441291Y-131825053D01*
X59288836Y-131906542D01*
X59180000Y-131995862D01*
X59180000Y-131472975D01*
X59255820Y-131513502D01*
X59375518Y-131549812D01*
X59500000Y-131562072D01*
X60114250Y-131559000D01*
X60273000Y-131400250D01*
X60273000Y-130501000D01*
X60253000Y-130501000D01*
X60253000Y-130247000D01*
X60273000Y-130247000D01*
X60273000Y-129347750D01*
X60114250Y-129189000D01*
X59500000Y-129185928D01*
X59375518Y-129198188D01*
X59255820Y-129234498D01*
X59180000Y-129275025D01*
X59180000Y-129069323D01*
X59183676Y-129032000D01*
X59180000Y-128994677D01*
X59180000Y-128994667D01*
X59169003Y-128883014D01*
X59125546Y-128739753D01*
X59071892Y-128639375D01*
X59054974Y-128607723D01*
X58983799Y-128520997D01*
X58960001Y-128491999D01*
X58931003Y-128468201D01*
X56951804Y-126489003D01*
X56928001Y-126459999D01*
X56812276Y-126365026D01*
X56680247Y-126294454D01*
X56536986Y-126250997D01*
X56425333Y-126240000D01*
X56425322Y-126240000D01*
X56388000Y-126236324D01*
X56350678Y-126240000D01*
X54618178Y-126240000D01*
X54493475Y-126053368D01*
X54286632Y-125846525D01*
X54043411Y-125684010D01*
X53773158Y-125572068D01*
X53486260Y-125515000D01*
X53193740Y-125515000D01*
X52906842Y-125572068D01*
X52636589Y-125684010D01*
X52393368Y-125846525D01*
X52186525Y-126053368D01*
X52024010Y-126296589D01*
X51912068Y-126566842D01*
X51855000Y-126853740D01*
X51855000Y-127146260D01*
X51912068Y-127433158D01*
X52024010Y-127703411D01*
X52186525Y-127946632D01*
X52393368Y-128153475D01*
X52567760Y-128270000D01*
X52393368Y-128386525D01*
X52186525Y-128593368D01*
X52024010Y-128836589D01*
X51912068Y-129106842D01*
X51855000Y-129393740D01*
X51855000Y-129686260D01*
X51912068Y-129973158D01*
X52024010Y-130243411D01*
X52186525Y-130486632D01*
X52393368Y-130693475D01*
X52567760Y-130810000D01*
X52393368Y-130926525D01*
X52186525Y-131133368D01*
X52024010Y-131376589D01*
X51912068Y-131646842D01*
X51855000Y-131933740D01*
X51855000Y-132226260D01*
X51912068Y-132513158D01*
X52024010Y-132783411D01*
X52186525Y-133026632D01*
X52393368Y-133233475D01*
X52567760Y-133350000D01*
X52393368Y-133466525D01*
X52186525Y-133673368D01*
X52024010Y-133916589D01*
X51912068Y-134186842D01*
X51855000Y-134473740D01*
X51855000Y-134766260D01*
X51912068Y-135053158D01*
X52024010Y-135323411D01*
X52186525Y-135566632D01*
X52393368Y-135773475D01*
X52567760Y-135890000D01*
X52393368Y-136006525D01*
X52186525Y-136213368D01*
X52024010Y-136456589D01*
X51912068Y-136726842D01*
X51855000Y-137013740D01*
X51855000Y-137306260D01*
X51912068Y-137593158D01*
X52024010Y-137863411D01*
X52186525Y-138106632D01*
X52393368Y-138313475D01*
X52567760Y-138430000D01*
X52393368Y-138546525D01*
X52186525Y-138753368D01*
X52024010Y-138996589D01*
X51912068Y-139266842D01*
X51855000Y-139553740D01*
X51855000Y-139846260D01*
X51912068Y-140133158D01*
X52024010Y-140403411D01*
X52186525Y-140646632D01*
X52393368Y-140853475D01*
X52575534Y-140975195D01*
X52458645Y-141044822D01*
X52242412Y-141239731D01*
X52068359Y-141473080D01*
X51943175Y-141735901D01*
X51898524Y-141883110D01*
X52019845Y-142113000D01*
X53213000Y-142113000D01*
X53213000Y-142093000D01*
X53467000Y-142093000D01*
X53467000Y-142113000D01*
X54660155Y-142113000D01*
X54781476Y-141883110D01*
X54736825Y-141735901D01*
X54611641Y-141473080D01*
X54437588Y-141239731D01*
X54221355Y-141044822D01*
X54104466Y-140975195D01*
X54286632Y-140853475D01*
X54493475Y-140646632D01*
X54618178Y-140460000D01*
X56858678Y-140460000D01*
X56896000Y-140463676D01*
X56933322Y-140460000D01*
X56933333Y-140460000D01*
X57044986Y-140449003D01*
X57129977Y-140423222D01*
X56893003Y-140660196D01*
X56863999Y-140683999D01*
X56815377Y-140743246D01*
X56769026Y-140799724D01*
X56717649Y-140895843D01*
X56698454Y-140931754D01*
X56654997Y-141075015D01*
X56644000Y-141186668D01*
X56644000Y-141186678D01*
X56640324Y-141224000D01*
X56644000Y-141261323D01*
X56644001Y-142773827D01*
X56610291Y-142784053D01*
X56457836Y-142865542D01*
X56324208Y-142975208D01*
X56214542Y-143108836D01*
X56133053Y-143261291D01*
X56082872Y-143426715D01*
X56065928Y-143598750D01*
X56065928Y-144020000D01*
X54618178Y-144020000D01*
X54493475Y-143833368D01*
X54286632Y-143626525D01*
X54104466Y-143504805D01*
X54221355Y-143435178D01*
X54437588Y-143240269D01*
X54611641Y-143006920D01*
X54736825Y-142744099D01*
X54781476Y-142596890D01*
X54660155Y-142367000D01*
X53467000Y-142367000D01*
X53467000Y-142387000D01*
X53213000Y-142387000D01*
X53213000Y-142367000D01*
X52019845Y-142367000D01*
X51898524Y-142596890D01*
X51943175Y-142744099D01*
X52068359Y-143006920D01*
X52242412Y-143240269D01*
X52458645Y-143435178D01*
X52575534Y-143504805D01*
X52393368Y-143626525D01*
X52186525Y-143833368D01*
X52024010Y-144076589D01*
X51912068Y-144346842D01*
X51855000Y-144633740D01*
X51855000Y-144926260D01*
X51912068Y-145213158D01*
X52024010Y-145483411D01*
X52186525Y-145726632D01*
X52393368Y-145933475D01*
X52567760Y-146050000D01*
X52393368Y-146166525D01*
X52186525Y-146373368D01*
X52024010Y-146616589D01*
X51912068Y-146886842D01*
X51855000Y-147173740D01*
X51855000Y-147466260D01*
X51912068Y-147753158D01*
X52024010Y-148023411D01*
X52186525Y-148266632D01*
X52318380Y-148398487D01*
X52245820Y-148420498D01*
X52135506Y-148479463D01*
X52038815Y-148558815D01*
X51959463Y-148655506D01*
X51900498Y-148765820D01*
X51864188Y-148885518D01*
X51851928Y-149010000D01*
X51851928Y-150710000D01*
X51864188Y-150834482D01*
X51900498Y-150954180D01*
X51959463Y-151064494D01*
X52038815Y-151161185D01*
X52135506Y-151240537D01*
X52245820Y-151299502D01*
X52365518Y-151335812D01*
X52490000Y-151348072D01*
X54190000Y-151348072D01*
X54314482Y-151335812D01*
X54434180Y-151299502D01*
X54544494Y-151240537D01*
X54641185Y-151161185D01*
X54720537Y-151064494D01*
X54779502Y-150954180D01*
X54815812Y-150834482D01*
X54828072Y-150710000D01*
X54828072Y-150617549D01*
X54914836Y-150609003D01*
X55058097Y-150565546D01*
X55190126Y-150494974D01*
X55305851Y-150400001D01*
X55329654Y-150370997D01*
X59919486Y-145781167D01*
X59912928Y-145847750D01*
X59912928Y-146760250D01*
X59929872Y-146932285D01*
X59980053Y-147097709D01*
X60061542Y-147250164D01*
X60171208Y-147383792D01*
X60304836Y-147493458D01*
X60457291Y-147574947D01*
X60622715Y-147625128D01*
X60794750Y-147642072D01*
X61282250Y-147642072D01*
X61300020Y-147640322D01*
X61973305Y-148313608D01*
X61997099Y-148342601D01*
X62026092Y-148366395D01*
X62026096Y-148366399D01*
X62089611Y-148418524D01*
X62102998Y-148429510D01*
X62102998Y-148539844D01*
X61873110Y-148418524D01*
X61725901Y-148463175D01*
X61463080Y-148588359D01*
X61229731Y-148762412D01*
X61034822Y-148978645D01*
X60965195Y-149095534D01*
X60843475Y-148913368D01*
X60636632Y-148706525D01*
X60393411Y-148544010D01*
X60123158Y-148432068D01*
X59836260Y-148375000D01*
X59543740Y-148375000D01*
X59256842Y-148432068D01*
X58986589Y-148544010D01*
X58743368Y-148706525D01*
X58536525Y-148913368D01*
X58374010Y-149156589D01*
X58262068Y-149426842D01*
X58205000Y-149713740D01*
X58205000Y-150006260D01*
X58262068Y-150293158D01*
X58374010Y-150563411D01*
X58536525Y-150806632D01*
X58743368Y-151013475D01*
X58986589Y-151175990D01*
X59256842Y-151287932D01*
X59543740Y-151345000D01*
X59836260Y-151345000D01*
X60123158Y-151287932D01*
X60393411Y-151175990D01*
X60636632Y-151013475D01*
X60843475Y-150806632D01*
X60965195Y-150624466D01*
X61034822Y-150741355D01*
X61229731Y-150957588D01*
X61463080Y-151131641D01*
X61725901Y-151256825D01*
X61873110Y-151301476D01*
X62103000Y-151180155D01*
X62103000Y-149987000D01*
X62083000Y-149987000D01*
X62083000Y-149733000D01*
X62103000Y-149733000D01*
X62103000Y-149713000D01*
X62357000Y-149713000D01*
X62357000Y-149733000D01*
X62377000Y-149733000D01*
X62377000Y-149987000D01*
X62357000Y-149987000D01*
X62357000Y-151180155D01*
X62586890Y-151301476D01*
X62734099Y-151256825D01*
X62996920Y-151131641D01*
X63230269Y-150957588D01*
X63425178Y-150741355D01*
X63494805Y-150624466D01*
X63616525Y-150806632D01*
X63823368Y-151013475D01*
X64066589Y-151175990D01*
X64336842Y-151287932D01*
X64623740Y-151345000D01*
X64916260Y-151345000D01*
X65136407Y-151301210D01*
X65575197Y-151740000D01*
X53372279Y-151740000D01*
X52975455Y-151701091D01*
X52624794Y-151595220D01*
X52301377Y-151423257D01*
X52017518Y-151191748D01*
X51784035Y-150909514D01*
X51609816Y-150587304D01*
X51501498Y-150237385D01*
X51460000Y-149842557D01*
X51460000Y-121952419D01*
X51463193Y-121920000D01*
X51463179Y-121919857D01*
X51498909Y-121555455D01*
X51604780Y-121204792D01*
X51776744Y-120881375D01*
X52008254Y-120597516D01*
X52290486Y-120364035D01*
X52612695Y-120189817D01*
X52962614Y-120081498D01*
X53357443Y-120040000D01*
X58798158Y-120040000D01*
X58782870Y-120090398D01*
G36*
X56227750Y-145590500D02*
G01*
X57277000Y-145590500D01*
X57277000Y-145570500D01*
X57531000Y-145570500D01*
X57531000Y-145590500D01*
X57551000Y-145590500D01*
X57551000Y-145844500D01*
X57531000Y-145844500D01*
X57531000Y-145864500D01*
X57277000Y-145864500D01*
X57277000Y-145844500D01*
X56227750Y-145844500D01*
X56069000Y-146003250D01*
X56065928Y-146205000D01*
X56078188Y-146329482D01*
X56114498Y-146449180D01*
X56173463Y-146559494D01*
X56252815Y-146656185D01*
X56349506Y-146735537D01*
X56459820Y-146794502D01*
X56579518Y-146830812D01*
X56704000Y-146843072D01*
X56708006Y-146843042D01*
X54780835Y-148770214D01*
X54779502Y-148765820D01*
X54720537Y-148655506D01*
X54641185Y-148558815D01*
X54544494Y-148479463D01*
X54434180Y-148420498D01*
X54361620Y-148398487D01*
X54493475Y-148266632D01*
X54655990Y-148023411D01*
X54767932Y-147753158D01*
X54825000Y-147466260D01*
X54825000Y-147173740D01*
X54767932Y-146886842D01*
X54655990Y-146616589D01*
X54493475Y-146373368D01*
X54286632Y-146166525D01*
X54112240Y-146050000D01*
X54286632Y-145933475D01*
X54493475Y-145726632D01*
X54618178Y-145540000D01*
X56177250Y-145540000D01*
X56227750Y-145590500D01*
G37*
X56227750Y-145590500D02*
X57277000Y-145590500D01*
X57277000Y-145570500D01*
X57531000Y-145570500D01*
X57531000Y-145590500D01*
X57551000Y-145590500D01*
X57551000Y-145844500D01*
X57531000Y-145844500D01*
X57531000Y-145864500D01*
X57277000Y-145864500D01*
X57277000Y-145844500D01*
X56227750Y-145844500D01*
X56069000Y-146003250D01*
X56065928Y-146205000D01*
X56078188Y-146329482D01*
X56114498Y-146449180D01*
X56173463Y-146559494D01*
X56252815Y-146656185D01*
X56349506Y-146735537D01*
X56459820Y-146794502D01*
X56579518Y-146830812D01*
X56704000Y-146843072D01*
X56708006Y-146843042D01*
X54780835Y-148770214D01*
X54779502Y-148765820D01*
X54720537Y-148655506D01*
X54641185Y-148558815D01*
X54544494Y-148479463D01*
X54434180Y-148420498D01*
X54361620Y-148398487D01*
X54493475Y-148266632D01*
X54655990Y-148023411D01*
X54767932Y-147753158D01*
X54825000Y-147466260D01*
X54825000Y-147173740D01*
X54767932Y-146886842D01*
X54655990Y-146616589D01*
X54493475Y-146373368D01*
X54286632Y-146166525D01*
X54112240Y-146050000D01*
X54286632Y-145933475D01*
X54493475Y-145726632D01*
X54618178Y-145540000D01*
X56177250Y-145540000D01*
X56227750Y-145590500D01*
G36*
X68456861Y-148448657D02*
G01*
X68404180Y-148420498D01*
X68284482Y-148384188D01*
X68160000Y-148371928D01*
X67684130Y-148371928D01*
X66690240Y-147378039D01*
X66721680Y-147368502D01*
X66831994Y-147309537D01*
X66928685Y-147230185D01*
X67008037Y-147133494D01*
X67054595Y-147046391D01*
X68456861Y-148448657D01*
G37*
X68456861Y-148448657D02*
X68404180Y-148420498D01*
X68284482Y-148384188D01*
X68160000Y-148371928D01*
X67684130Y-148371928D01*
X66690240Y-147378039D01*
X66721680Y-147368502D01*
X66831994Y-147309537D01*
X66928685Y-147230185D01*
X67008037Y-147133494D01*
X67054595Y-147046391D01*
X68456861Y-148448657D01*
G36*
X66167000Y-146158795D02*
G01*
X66167000Y-146177000D01*
X66185205Y-146177000D01*
X66187000Y-146178795D01*
X66187000Y-146431000D01*
X66167000Y-146431000D01*
X66167000Y-146451000D01*
X65913000Y-146451000D01*
X65913000Y-146431000D01*
X65893000Y-146431000D01*
X65893000Y-146177000D01*
X65913000Y-146177000D01*
X65913000Y-146157000D01*
X66165205Y-146157000D01*
X66167000Y-146158795D01*
G37*
X66167000Y-146158795D02*
X66167000Y-146177000D01*
X66185205Y-146177000D01*
X66187000Y-146178795D01*
X66187000Y-146431000D01*
X66167000Y-146431000D01*
X66167000Y-146451000D01*
X65913000Y-146451000D01*
X65913000Y-146431000D01*
X65893000Y-146431000D01*
X65893000Y-146177000D01*
X65913000Y-146177000D01*
X65913000Y-146157000D01*
X66165205Y-146157000D01*
X66167000Y-146158795D01*
G36*
X64681235Y-131923038D02*
G01*
X64567708Y-132016208D01*
X64458042Y-132149836D01*
X64376553Y-132302291D01*
X64326372Y-132467715D01*
X64309428Y-132639750D01*
X64309428Y-133146771D01*
X64004998Y-133451201D01*
X63976000Y-133474999D01*
X63952202Y-133503997D01*
X63952201Y-133503998D01*
X63881026Y-133590724D01*
X63810454Y-133722754D01*
X63807961Y-133730974D01*
X63768823Y-133860000D01*
X63766998Y-133866015D01*
X63752324Y-134015000D01*
X63756001Y-134052332D01*
X63756001Y-134678288D01*
X63712063Y-134722226D01*
X63598795Y-134891744D01*
X63520774Y-135080102D01*
X63481000Y-135280061D01*
X63481000Y-135483939D01*
X63520774Y-135683898D01*
X63598795Y-135872256D01*
X63712063Y-136041774D01*
X63856226Y-136185937D01*
X64025744Y-136299205D01*
X64214102Y-136377226D01*
X64414061Y-136417000D01*
X64438199Y-136417000D01*
X64258998Y-136596201D01*
X64230000Y-136619999D01*
X64206202Y-136648997D01*
X64206201Y-136648998D01*
X64135026Y-136735724D01*
X64064454Y-136867754D01*
X64044527Y-136933448D01*
X64020998Y-137011014D01*
X64020730Y-137013740D01*
X64006324Y-137160000D01*
X64010001Y-137197332D01*
X64010000Y-139811988D01*
X63990256Y-139798795D01*
X63801898Y-139720774D01*
X63601939Y-139681000D01*
X63398061Y-139681000D01*
X63198102Y-139720774D01*
X63009744Y-139798795D01*
X62840226Y-139912063D01*
X62796289Y-139956000D01*
X62007655Y-139956000D01*
X62013072Y-139901000D01*
X62013072Y-139701000D01*
X61998890Y-139557009D01*
X61987650Y-139519955D01*
X61998868Y-139484883D01*
X62010000Y-139382750D01*
X61851250Y-139224000D01*
X61833741Y-139224000D01*
X61796896Y-139179104D01*
X61762651Y-139151000D01*
X61796896Y-139122896D01*
X61833741Y-139078000D01*
X61851250Y-139078000D01*
X62010000Y-138919250D01*
X61998868Y-138817117D01*
X61987650Y-138782045D01*
X61998890Y-138744991D01*
X62013072Y-138601000D01*
X62013072Y-138401000D01*
X61998890Y-138257009D01*
X61974316Y-138176000D01*
X61998890Y-138094991D01*
X62013072Y-137951000D01*
X62013072Y-137751000D01*
X61998890Y-137607009D01*
X61974316Y-137526000D01*
X61998890Y-137444991D01*
X62013072Y-137301000D01*
X62013072Y-137101000D01*
X61998890Y-136957009D01*
X61974316Y-136876000D01*
X61998890Y-136794991D01*
X62013072Y-136651000D01*
X62013072Y-136451000D01*
X61998890Y-136307009D01*
X61974316Y-136226000D01*
X61998890Y-136144991D01*
X62013072Y-136001000D01*
X62013072Y-135801000D01*
X61998890Y-135657009D01*
X61974316Y-135576000D01*
X61998890Y-135494991D01*
X62013072Y-135351000D01*
X62013072Y-135151000D01*
X61998890Y-135007009D01*
X61956890Y-134868552D01*
X61888684Y-134740949D01*
X61796896Y-134629104D01*
X61685051Y-134537316D01*
X61557448Y-134469110D01*
X61440415Y-134433609D01*
X61611750Y-134431000D01*
X61770500Y-134272250D01*
X61770500Y-133223000D01*
X62024500Y-133223000D01*
X62024500Y-134272250D01*
X62183250Y-134431000D01*
X62385000Y-134434072D01*
X62509482Y-134421812D01*
X62629180Y-134385502D01*
X62739494Y-134326537D01*
X62836185Y-134247185D01*
X62915537Y-134150494D01*
X62974502Y-134040180D01*
X63010812Y-133920482D01*
X63023072Y-133796000D01*
X63020000Y-133381750D01*
X62861250Y-133223000D01*
X62024500Y-133223000D01*
X61770500Y-133223000D01*
X61750500Y-133223000D01*
X61750500Y-132969000D01*
X61770500Y-132969000D01*
X61770500Y-132949000D01*
X62024500Y-132949000D01*
X62024500Y-132969000D01*
X62861250Y-132969000D01*
X63020000Y-132810250D01*
X63023072Y-132396000D01*
X63010812Y-132271518D01*
X62974502Y-132151820D01*
X62915537Y-132041506D01*
X62836185Y-131944815D01*
X62739494Y-131865463D01*
X62629180Y-131806498D01*
X62509482Y-131770188D01*
X62430857Y-131762444D01*
X63475750Y-130717552D01*
X64681235Y-131923038D01*
G37*
X64681235Y-131923038D02*
X64567708Y-132016208D01*
X64458042Y-132149836D01*
X64376553Y-132302291D01*
X64326372Y-132467715D01*
X64309428Y-132639750D01*
X64309428Y-133146771D01*
X64004998Y-133451201D01*
X63976000Y-133474999D01*
X63952202Y-133503997D01*
X63952201Y-133503998D01*
X63881026Y-133590724D01*
X63810454Y-133722754D01*
X63807961Y-133730974D01*
X63768823Y-133860000D01*
X63766998Y-133866015D01*
X63752324Y-134015000D01*
X63756001Y-134052332D01*
X63756001Y-134678288D01*
X63712063Y-134722226D01*
X63598795Y-134891744D01*
X63520774Y-135080102D01*
X63481000Y-135280061D01*
X63481000Y-135483939D01*
X63520774Y-135683898D01*
X63598795Y-135872256D01*
X63712063Y-136041774D01*
X63856226Y-136185937D01*
X64025744Y-136299205D01*
X64214102Y-136377226D01*
X64414061Y-136417000D01*
X64438199Y-136417000D01*
X64258998Y-136596201D01*
X64230000Y-136619999D01*
X64206202Y-136648997D01*
X64206201Y-136648998D01*
X64135026Y-136735724D01*
X64064454Y-136867754D01*
X64044527Y-136933448D01*
X64020998Y-137011014D01*
X64020730Y-137013740D01*
X64006324Y-137160000D01*
X64010001Y-137197332D01*
X64010000Y-139811988D01*
X63990256Y-139798795D01*
X63801898Y-139720774D01*
X63601939Y-139681000D01*
X63398061Y-139681000D01*
X63198102Y-139720774D01*
X63009744Y-139798795D01*
X62840226Y-139912063D01*
X62796289Y-139956000D01*
X62007655Y-139956000D01*
X62013072Y-139901000D01*
X62013072Y-139701000D01*
X61998890Y-139557009D01*
X61987650Y-139519955D01*
X61998868Y-139484883D01*
X62010000Y-139382750D01*
X61851250Y-139224000D01*
X61833741Y-139224000D01*
X61796896Y-139179104D01*
X61762651Y-139151000D01*
X61796896Y-139122896D01*
X61833741Y-139078000D01*
X61851250Y-139078000D01*
X62010000Y-138919250D01*
X61998868Y-138817117D01*
X61987650Y-138782045D01*
X61998890Y-138744991D01*
X62013072Y-138601000D01*
X62013072Y-138401000D01*
X61998890Y-138257009D01*
X61974316Y-138176000D01*
X61998890Y-138094991D01*
X62013072Y-137951000D01*
X62013072Y-137751000D01*
X61998890Y-137607009D01*
X61974316Y-137526000D01*
X61998890Y-137444991D01*
X62013072Y-137301000D01*
X62013072Y-137101000D01*
X61998890Y-136957009D01*
X61974316Y-136876000D01*
X61998890Y-136794991D01*
X62013072Y-136651000D01*
X62013072Y-136451000D01*
X61998890Y-136307009D01*
X61974316Y-136226000D01*
X61998890Y-136144991D01*
X62013072Y-136001000D01*
X62013072Y-135801000D01*
X61998890Y-135657009D01*
X61974316Y-135576000D01*
X61998890Y-135494991D01*
X62013072Y-135351000D01*
X62013072Y-135151000D01*
X61998890Y-135007009D01*
X61956890Y-134868552D01*
X61888684Y-134740949D01*
X61796896Y-134629104D01*
X61685051Y-134537316D01*
X61557448Y-134469110D01*
X61440415Y-134433609D01*
X61611750Y-134431000D01*
X61770500Y-134272250D01*
X61770500Y-133223000D01*
X62024500Y-133223000D01*
X62024500Y-134272250D01*
X62183250Y-134431000D01*
X62385000Y-134434072D01*
X62509482Y-134421812D01*
X62629180Y-134385502D01*
X62739494Y-134326537D01*
X62836185Y-134247185D01*
X62915537Y-134150494D01*
X62974502Y-134040180D01*
X63010812Y-133920482D01*
X63023072Y-133796000D01*
X63020000Y-133381750D01*
X62861250Y-133223000D01*
X62024500Y-133223000D01*
X61770500Y-133223000D01*
X61750500Y-133223000D01*
X61750500Y-132969000D01*
X61770500Y-132969000D01*
X61770500Y-132949000D01*
X62024500Y-132949000D01*
X62024500Y-132969000D01*
X62861250Y-132969000D01*
X63020000Y-132810250D01*
X63023072Y-132396000D01*
X63010812Y-132271518D01*
X62974502Y-132151820D01*
X62915537Y-132041506D01*
X62836185Y-131944815D01*
X62739494Y-131865463D01*
X62629180Y-131806498D01*
X62509482Y-131770188D01*
X62430857Y-131762444D01*
X63475750Y-130717552D01*
X64681235Y-131923038D01*
%TD*%
M02*
