%TF.GenerationSoftware,KiCad,Pcbnew,(5.1.6)-1*%
%TF.CreationDate,2020-06-22T18:51:59+05:30*%
%TF.ProjectId,STM8-Dev-Board-STM8S003F3P6,53544d38-2d44-4657-962d-426f6172642d,rev?*%
%TF.SameCoordinates,Original*%
%TF.FileFunction,Paste,Bot*%
%TF.FilePolarity,Positive*%
%FSLAX46Y46*%
G04 Gerber Fmt 4.6, Leading zero omitted, Abs format (unit mm)*
G04 Created by KiCad (PCBNEW (5.1.6)-1) date 2020-06-22 18:51:59*
%MOMM*%
%LPD*%
G01*
G04 APERTURE LIST*
%ADD10R,1.500000X2.000000*%
%ADD11R,3.800000X2.000000*%
G04 APERTURE END LIST*
D10*
%TO.C,U2*%
X61200000Y-132740000D03*
X65800000Y-132740000D03*
X63500000Y-132740000D03*
D11*
X63500000Y-139040000D03*
%TD*%
%TO.C,C3*%
G36*
G01*
X62034000Y-129083750D02*
X62034000Y-129996250D01*
G75*
G02*
X61790250Y-130240000I-243750J0D01*
G01*
X61302750Y-130240000D01*
G75*
G02*
X61059000Y-129996250I0J243750D01*
G01*
X61059000Y-129083750D01*
G75*
G02*
X61302750Y-128840000I243750J0D01*
G01*
X61790250Y-128840000D01*
G75*
G02*
X62034000Y-129083750I0J-243750D01*
G01*
G37*
G36*
G01*
X63909000Y-129083750D02*
X63909000Y-129996250D01*
G75*
G02*
X63665250Y-130240000I-243750J0D01*
G01*
X63177750Y-130240000D01*
G75*
G02*
X62934000Y-129996250I0J243750D01*
G01*
X62934000Y-129083750D01*
G75*
G02*
X63177750Y-128840000I243750J0D01*
G01*
X63665250Y-128840000D01*
G75*
G02*
X63909000Y-129083750I0J-243750D01*
G01*
G37*
%TD*%
%TO.C,C2*%
G36*
G01*
X68631750Y-136340000D02*
X69544250Y-136340000D01*
G75*
G02*
X69788000Y-136583750I0J-243750D01*
G01*
X69788000Y-137071250D01*
G75*
G02*
X69544250Y-137315000I-243750J0D01*
G01*
X68631750Y-137315000D01*
G75*
G02*
X68388000Y-137071250I0J243750D01*
G01*
X68388000Y-136583750D01*
G75*
G02*
X68631750Y-136340000I243750J0D01*
G01*
G37*
G36*
G01*
X68631750Y-134465000D02*
X69544250Y-134465000D01*
G75*
G02*
X69788000Y-134708750I0J-243750D01*
G01*
X69788000Y-135196250D01*
G75*
G02*
X69544250Y-135440000I-243750J0D01*
G01*
X68631750Y-135440000D01*
G75*
G02*
X68388000Y-135196250I0J243750D01*
G01*
X68388000Y-134708750D01*
G75*
G02*
X68631750Y-134465000I243750J0D01*
G01*
G37*
%TD*%
M02*
