M48
; DRILL file {KiCad (5.1.6)-1} date 06/22/20 18:52:02
; FORMAT={-:-/ absolute / inch / decimal}
; #@! TF.CreationDate,2020-06-22T18:52:02+05:30
; #@! TF.GenerationSoftware,Kicad,Pcbnew,(5.1.6)-1
; #@! TF.FileFunction,Plated,1,2,PTH
FMAT,2
INCH
T1C0.0157
T2C0.0236
T3C0.0335
T4C0.0394
%
G90
G05
T1
X2.19Y-5.77
X2.26Y-4.87
X2.5Y-5.54
X2.527Y-5.011
X2.54Y-5.33
X2.65Y-5.8
X2.75Y-4.9
T3
X2.4016Y-4.8576
X2.5984Y-4.8576
T4
X2.35Y-5.9
X2.45Y-5.9
X2.55Y-5.9
X2.65Y-5.9
X2.1Y-5.0
X2.1Y-5.1
X2.1Y-5.2
X2.1Y-5.3
X2.1Y-5.4
X2.1Y-5.5
X2.1Y-5.6
X2.1Y-5.7
X2.1Y-5.8
X2.1Y-5.9
X2.9Y-5.0
X2.9Y-5.1
X2.9Y-5.2
X2.9Y-5.3
X2.9Y-5.4
X2.9Y-5.5
X2.9Y-5.6
X2.9Y-5.7
X2.9Y-5.8
X2.9Y-5.9
T2
G00X2.3622Y-4.7651
M15
G01X2.3622Y-4.7375
M16
G05
G00X2.6378Y-4.7375
M15
G01X2.6378Y-4.7651
M16
G05
T0
M30
